<?xml version="1.0" encoding="UTF-8" standalone="no"?>
<!-- Created with Inkscape (http://www.inkscape.org/) -->

<svg
   width="297.10172mm"
   height="294.27643mm"
   viewBox="0 0 297.10172 294.27643"
   version="1.1"
   id="svg1"
   xml:space="preserve"
   inkscape:version="1.4.2 (f4327f4, 2025-05-13)"
   sodipodi:docname="exact-logo-transparent-background.svg"
   xmlns:inkscape="http://www.inkscape.org/namespaces/inkscape"
   xmlns:sodipodi="http://sodipodi.sourceforge.net/DTD/sodipodi-0.dtd"
   xmlns="http://www.w3.org/2000/svg"
   xmlns:svg="http://www.w3.org/2000/svg"><sodipodi:namedview
     id="namedview1"
     pagecolor="#000000"
     bordercolor="#666666"
     borderopacity="1.0"
     inkscape:showpageshadow="2"
     inkscape:pageopacity="0.0"
     inkscape:pagecheckerboard="false"
     inkscape:deskcolor="#d1d1d1"
     inkscape:document-units="mm"
     inkscape:zoom="0.36970398"
     inkscape:cx="267.78181"
     inkscape:cy="595.07068"
     inkscape:window-width="1920"
     inkscape:window-height="1010"
     inkscape:window-x="1913"
     inkscape:window-y="-6"
     inkscape:window-maximized="1"
     inkscape:current-layer="layer1" /><defs
     id="defs1" /><g
     inkscape:label="Layer 1"
     inkscape:groupmode="layer"
     id="layer1"
     transform="translate(45.905583,13.031961)"><g
       id="g1"><path
         style="fill:#ffd42a"
         d="m 169.84424,231.28888 c -1.12825,-0.11452 -3.55825,-0.76649 -6.21771,-1.66822 -5.58111,-1.89237 -8.19885,-2.81014 -8.86354,-3.1075 -0.29104,-0.13021 -1.24851,-0.47463 -2.12771,-0.76539 -0.8792,-0.29075 -1.95076,-0.67127 -2.38125,-0.8456 -1.28326,-0.51967 -1.73074,-0.68617 -4.22229,-1.57112 -1.30969,-0.46517 -3.6314,-1.29649 -5.15937,-1.84736 -1.52797,-0.55088 -3.84969,-1.38135 -5.15938,-1.8455 -1.30969,-0.46415 -2.79797,-1.00612 -3.30729,-1.20437 -1.19818,-0.46639 -7.25314,-2.64075 -13.62604,-4.89316 -1.30969,-0.4629 -2.58799,-0.95038 -2.84068,-1.0833 -0.25269,-0.13293 -0.59188,-0.24168 -0.75377,-0.24168 -0.16188,0 -0.66951,-0.16766 -1.12806,-0.37258 -0.45856,-0.20492 -1.96483,-0.74397 -3.34728,-1.1979 -1.38245,-0.45392 -2.72879,-0.94641 -2.99187,-1.09442 -0.34894,-0.19633 -0.88567,-0.12998 -1.98437,0.24528 -0.82833,0.28292 -2.99434,0.94641 -4.81335,1.47443 -3.646523,1.05849 -7.232973,2.13334 -8.863533,2.65638 -1.20458,0.38639 -2.9848,0.92521 -5.29167,1.60162 -0.87312,0.25601 -1.82562,0.55877 -2.11667,0.67279 -0.29104,0.11402 -1.24354,0.40738 -2.11666,0.65192 -1.7866,0.50038 -3.07532,0.89412 -5.95313,1.81885 -1.0914,0.3507 -2.87734,0.89582 -3.96875,1.21136 -1.0914,0.31555 -2.28203,0.67356 -2.64583,0.79559 -0.9481,0.31802 -5.67193,1.72642 -7.54062,2.24823 -0.87313,0.2438 -1.88516,0.54396 -2.24896,0.66701 -0.3638,0.12306 -1.55443,0.47958 -2.64584,0.79227 -1.0914,0.3127 -2.28203,0.66469 -2.64583,0.7822 -0.3638,0.11751 -1.37583,0.42299 -2.24896,0.67883 -0.87312,0.25585 -1.82562,0.55723 -2.11666,0.66974 -0.29105,0.1125 -1.66026,0.5236 -3.04271,0.91356 -1.38245,0.38995 -3.10886,0.88479 -3.83646,1.09965 -1.34103,0.396 -1.66345,0.48625 -4.49792,1.25904 -4.99858,1.3628 -8.76694,1.81774 -10.24015,1.23626 -3.97812,-1.57017 -5.55816,-2.48804 -7.64804,-4.44288 -1.99087,-1.86222 -3.4966,-4.22509 -4.68747,-7.35577 -0.53122,-1.39654 -0.77679,-4.65482 -0.51846,-6.87917 0.28385,-2.4442 1.70742,-5.69186 3.21976,-7.34542 1.03141,-1.12771 1.19797,-0.95277 0.92334,0.96981 -0.61469,4.3031 0.0816,8.38032 1.99252,11.66792 1.75963,3.02727 4.96527,6.36806 7.01712,7.31299 0.66557,0.30651 1.52616,0.72109 1.91241,0.92131 0.4674,0.24227 1.64541,0.36401 3.52216,0.36401 2.63928,0 3.88088,-0.21417 6.3589,-1.09689 0.43656,-0.15551 1.27,-0.37628 1.85208,-0.49061 0.58208,-0.11432 1.41552,-0.32943 1.85208,-0.47802 0.77258,-0.26297 2.18366,-0.66828 5.15938,-1.48195 0.80036,-0.21885 2.52677,-0.70801 3.83646,-1.08703 1.30968,-0.37901 2.8575,-0.80911 3.43958,-0.95577 0.58208,-0.14666 1.26267,-0.37609 1.51241,-0.50985 0.43676,-0.23392 0.99427,-0.39259 4.17613,-1.18855 2.94047,-0.73559 3.85647,-0.98727 4.7625,-1.30855 0.50932,-0.1806 1.58089,-0.51194 2.38125,-0.73631 0.80036,-0.22437 2.70536,-0.77949 4.23333,-1.2336 2.57947,-0.76662 5.37784,-1.58007 7.27604,-2.11504 0.43657,-0.12304 1.68672,-0.48624 2.77813,-0.80711 1.09141,-0.32087 2.63922,-0.76661 3.43958,-0.99051 0.80037,-0.22391 1.87193,-0.55751 2.38125,-0.74133 0.50933,-0.18382 1.69995,-0.54524 2.64584,-0.80317 0.94588,-0.25793 2.85088,-0.81113 4.23332,-1.22935 1.38245,-0.41822 3.168393,-0.9442 3.968753,-1.16886 0.80037,-0.22465 1.8124,-0.52868 2.24896,-0.67562 0.43657,-0.14694 1.30147,-0.37154 1.92201,-0.49911 0.62055,-0.12757 1.33492,-0.3394 1.5875,-0.47073 0.25259,-0.13133 1.2759,-0.37848 2.27403,-0.54922 1.94276,-0.33233 3.97908,-0.0836 5.40497,0.66032 0.39476,0.20594 0.97105,0.37517 1.28066,0.37607 0.3096,9e-4 0.71113,0.18022 0.89229,0.3985 0.18116,0.21828 0.58269,0.39939 0.89229,0.40246 0.30961,0.003 1.39636,0.30616 2.415,0.67355 3.79464,1.36856 6.37691,2.26821 7.27604,2.53493 0.50933,0.15108 1.03915,0.3827 1.1774,0.51469 0.13824,0.132 0.49543,0.24073 0.79375,0.24163 0.29832,9e-4 0.88343,0.17949 1.30024,0.39687 0.41682,0.21739 0.8641,0.39525 0.99396,0.39525 0.12986,0 1.27711,0.39542 2.54944,0.87871 1.27234,0.48329 2.73006,1.02858 3.23938,1.21176 0.50932,0.18318 2.1762,0.79028 3.70417,1.34911 1.52797,0.55883 3.19484,1.15925 3.70416,1.33425 0.50933,0.17501 1.28323,0.47807 1.71979,0.67347 0.43657,0.19539 1.1223,0.43209 1.52386,0.526 0.40156,0.0939 0.79554,0.27661 0.87551,0.40601 0.08,0.1294 0.3879,0.23527 0.68428,0.23527 0.29638,0 0.8549,0.17272 1.24116,0.38382 0.38625,0.2111 1.65478,0.69829 2.81894,1.08263 2.05708,0.67914 5.01228,1.76986 6.08542,2.24603 1.26271,0.5603 5.38779,1.89985 6.42908,2.08774 0.62558,0.11288 1.27447,0.34229 1.44198,0.5098 0.16751,0.16751 0.57437,0.30456 0.90413,0.30456 0.32976,0 0.99056,0.16227 1.46844,0.3606 4.10419,1.70328 8.41485,2.08332 10.92303,0.96299 2.28178,-1.0192 3.10674,-1.34774 3.18575,-1.26873 0.13614,0.13613 -1.86071,2.18263 -3.1334,3.21131 -1.0714,0.86597 -1.81007,1.26289 -3.97682,2.13689 -1.22679,0.49486 -4.40081,0.69702 -6.92344,0.44098 z M 46.812997,187.48809 c -3.62356,-0.96212 -5.21641,-1.39889 -6.35,-1.74123 -0.43656,-0.13184 -1.68672,-0.49229 -2.77813,-0.80099 -7.34293,-2.07697 -8.88824,-2.64837 -10.42564,-3.85502 -3.10443,-2.43656 -4.5561,-5.33523 -4.32693,-8.63991 0.1543,-2.225 0.84474,-3.72188 2.87292,-6.22847 1.43649,-1.77533 1.99507,-2.07096 1.70842,-0.90419 -0.0983,0.40019 -0.24529,1.75843 -0.32662,3.01832 -0.16953,2.62615 0.23855,4.1173 1.61654,5.90704 2.24041,2.90984 4.15908,3.96832 10.07194,5.55646 1.98157,0.53222 4.2517,1.17958 5.29167,1.50897 0.43656,0.13827 1.32953,0.35498 1.98437,0.48156 3.15456,0.6098 7.37065,1.89621 7.79091,2.37716 1.0019,1.1466 0.33926,2.87492 -1.44618,3.77196 -1.2093,0.60757 -1.90102,0.55259 -5.68327,-0.45166 z m 111.641523,-0.0496 c -0.73896,-0.79736 -0.82069,-1.63966 -0.2636,-2.71695 0.44053,-0.85188 1.49652,-1.39466 3.58353,-1.84193 0.80036,-0.17152 2.46724,-0.5563 3.70417,-0.85506 1.23692,-0.29875 2.78473,-0.65645 3.43958,-0.79488 0.65484,-0.13843 1.78594,-0.42078 2.51354,-0.62745 1.21265,-0.34443 1.92538,-0.5325 5.42395,-1.43129 0.65484,-0.16823 1.78594,-0.49082 2.51354,-0.71688 0.7276,-0.22605 1.73964,-0.47534 2.24896,-0.55397 0.50932,-0.0786 1.07487,-0.26248 1.25677,-0.40858 0.22543,-0.18105 0.33073,-0.17225 0.33073,0.0277 0,0.16131 -1.20217,1.54142 -2.67149,3.06692 l -2.67149,2.77364 -2.28945,0.6739 c -1.2592,0.37064 -2.70616,0.78602 -3.21548,0.92305 -0.50932,0.13703 -1.75948,0.48167 -2.77812,0.76587 -1.01865,0.2842 -2.09021,0.57888 -2.38125,0.65484 -0.29104,0.076 -1.18401,0.33039 -1.98438,0.5654 -5.01912,1.47377 -5.8,1.53103 -6.75951,0.49571 z M 71.419247,167.35092 c -0.58208,-0.19309 -1.83224,-0.54548 -2.77813,-0.78307 -1.97638,-0.49644 -4.16203,-1.10454 -5.68854,-1.58269 -0.58208,-0.18233 -2.01083,-0.59785 -3.175,-0.92339 -1.16416,-0.32554 -2.22977,-0.69689 -2.36802,-0.82524 -0.13824,-0.12834 -0.45716,-0.23335 -0.7087,-0.23335 -0.25155,0 -0.61469,-0.15395 -0.80698,-0.34211 -0.1923,-0.18816 -1.54026,-1.15767 -2.99546,-2.15448 -1.45521,-0.9968 -3.68986,-2.53949 -4.96589,-3.4282 -1.27603,-0.88871 -2.52618,-1.73858 -2.77812,-1.88861 -3.32128,-1.97776 -5.9292,-4.21862 -6.73008,-5.78285 -0.80953,-1.58112 -1.24506,-3.47729 -2.19463,-9.55479 -0.45412,-2.90643 -0.93294,-5.90172 -1.0574,-6.61458 -0.28546,-1.63503 -1.31949,-6.87629 -1.85305,-9.39271 -0.20056,-0.94589 -0.54542,-2.61276 -0.76637,-3.70417 -0.22094,-1.09141 -0.57236,-2.75828 -0.78094,-3.70416 -0.39675,-1.79924 -0.30469,-2.27596 0.60424,-3.12888 0.25964,-0.24365 1.27109,-1.2169 2.24767,-2.16279 l 1.77559,-1.71979 -0.17525,0.96433 c -0.0996,0.54784 -0.0507,1.1971 0.11319,1.50328 0.15864,0.29643 0.39542,1.41029 0.52617,2.47526 0.28517,2.32262 0.73813,4.94011 1.13635,6.5665 0.16034,0.65484 0.37862,1.78594 0.48508,2.51354 0.10646,0.72761 0.33214,2.03729 0.50152,2.91042 0.16937,0.87312 0.47698,2.48047 0.68357,3.57187 0.20659,1.09141 0.5063,2.63922 0.66603,3.43959 0.15973,0.80036 0.34869,1.81239 0.4199,2.24896 0.0712,0.43656 0.29613,1.56765 0.49981,2.51354 0.76884,3.57047 0.97799,4.67699 1.18947,6.29286 0.27371,2.09131 0.63438,2.63321 2.84694,4.27753 0.98195,0.72976 1.92917,1.44794 2.10492,1.59594 0.17576,0.148 0.37515,0.26909 0.44309,0.26909 0.0679,0 2.88372,1.84547 6.25728,4.10103 3.37356,2.25558 6.17894,4.10105 6.23419,4.10105 0.28338,0 11.64773,7.77712 11.8283,8.09462 0.11637,0.20463 0.39129,0.37204 0.61093,0.37204 0.21964,0 0.32576,0.11907 0.23582,0.26459 -0.1912,0.30935 -0.20669,0.30789 -1.5875,-0.15018 z m 3.96668,-84.574732 c -2.27318,-2.22939 -2.22374,-2.01797 -1.71599,-7.3379 0.14647,-1.53467 0.38995,-5.0525 0.54106,-7.8174 0.62745,-11.48035 0.7737,-13.59886 1.08674,-15.7427 l 0.32839,-2.24896 2.17419,-2.24876 c 1.1958,-1.23682 2.24366,-2.17929 2.32857,-2.09438 0.0849,0.0849 0.0341,1.09685 -0.11282,2.24876 -0.14695,1.15191 -0.38085,4.29703 -0.51977,6.98917 -0.13891,2.69213 -0.38006,7.3951 -0.53588,10.45104 -0.15583,3.05594 -0.39494,6.27063 -0.53136,7.14375 -0.13643,0.87313 -0.32619,4.00092 -0.42171,6.95066 -0.0955,2.94974 -0.27839,5.42789 -0.40639,5.507 -0.128,0.0791 -1.12476,-0.73102 -2.21503,-1.80028 z m 44.402463,-18.79332 c -0.48025,-0.93454 -0.54032,-1.32558 -0.35559,-2.3151 0.12225,-0.65485 0.35759,-1.96453 0.52297,-2.91042 0.16539,-0.94588 0.40868,-2.13651 0.54067,-2.64583 0.13198,-0.50932 0.43681,-1.87854 0.67741,-3.04271 0.62568,-3.02744 0.78397,-3.3409 2.17622,-4.30958 l 1.25042,-0.87 0.092,0.73771 c 0.0917,0.73521 -0.49634,3.6526 -1.18476,5.87807 -0.19934,0.64438 -0.36243,1.43351 -0.36243,1.75362 0,0.32011 -0.17859,1.00945 -0.39687,1.53187 -0.21828,0.52242 -0.39688,1.25873 -0.39688,1.63624 0,0.37752 -0.17115,1.24454 -0.38033,1.92673 -0.20919,0.68219 -0.45461,1.80589 -0.54538,2.49711 -0.21458,1.63396 -0.83978,1.68447 -1.63743,0.13229 z"
         id="path2" /><path
         style="fill:#00b9e8;fill-opacity:1;stroke:none"
         d="m 172.84433,228.53018 c -0.77902,-0.1133 -1.54698,-0.33657 -1.70656,-0.49616 -0.15958,-0.15958 -0.65329,-0.29437 -1.09713,-0.29952 -0.44384,-0.005 -1.10464,-0.17954 -1.46844,-0.3875 -0.3638,-0.20797 -0.89958,-0.38308 -1.19062,-0.38913 -0.29105,-0.006 -0.8702,-0.18887 -1.28702,-0.40625 -0.41681,-0.21739 -1.01213,-0.39598 -1.32292,-0.39688 -0.31078,-9e-4 -0.9061,-0.17949 -1.32291,-0.39687 -0.41682,-0.21739 -0.91879,-0.39525 -1.1155,-0.39525 -0.19671,0 -0.74865,-0.16881 -1.22653,-0.37513 -0.47788,-0.20632 -2.59528,-0.99406 -4.70533,-1.75052 -2.11005,-0.75646 -4.21164,-1.54015 -4.6702,-1.74153 -0.45855,-0.20139 -1.05386,-0.36994 -1.32291,-0.37457 -0.26905,-0.005 -0.7203,-0.18322 -1.00277,-0.39687 -0.28248,-0.21366 -0.76574,-0.38846 -1.07391,-0.38846 -0.30818,0 -0.79144,-0.17481 -1.07391,-0.38846 -0.28248,-0.21366 -0.69219,-0.39298 -0.91047,-0.39851 -0.21828,-0.006 -0.73791,-0.1879 -1.15472,-0.40529 -0.41682,-0.21738 -0.9077,-0.39524 -1.09085,-0.39524 -0.28772,0 -1.15445,-0.33257 -3.44297,-1.3211 -0.29104,-0.12572 -1.29459,-0.48242 -2.23011,-0.79266 -0.93552,-0.31025 -1.94475,-0.69456 -2.24273,-0.85404 -0.29799,-0.15948 -0.90178,-0.38011 -1.34177,-0.49031 -0.43999,-0.11019 -1.45482,-0.45452 -2.25518,-0.76517 -2.81083,-1.091 -3.57885,-1.37115 -4.36563,-1.59243 -1.29933,-0.36543 -2.59762,-0.83395 -3.39488,-1.22511 -0.41197,-0.20214 -0.94775,-0.36825 -1.19062,-0.36915 -0.24287,-8.9e-4 -0.78261,-0.17949 -1.19943,-0.39687 -0.41681,-0.21739 -0.9526,-0.39929 -1.19062,-0.40422 -0.23803,-0.005 -0.90903,-0.23903 -1.49111,-0.52019 -0.58209,-0.28117 -1.25967,-0.51525 -1.50574,-0.52019 -0.24608,-0.005 -0.51459,-0.11768 -0.5967,-0.25054 -0.0821,-0.13286 -0.6243,-0.32181 -1.20486,-0.4199 -0.58055,-0.0981 -1.1144,-0.27354 -1.18631,-0.3899 -0.0719,-0.11636 -0.57856,-0.29525 -1.12587,-0.39753 -0.54731,-0.10228 -1.11417,-0.28247 -1.25969,-0.40042 -0.14552,-0.11795 -1.06461,-0.41397 -2.04243,-0.65783 -1.32749,-0.33107 -1.99771,-0.37708 -2.64583,-0.18166 -1.09472,0.33009 -2.90102,0.78816 -4.43987,1.12593 -0.65484,0.14374 -1.37379,0.36087 -1.59767,0.48252 -0.22388,0.12165 -0.93825,0.30889 -1.5875,0.41609 -0.649253,0.10721 -1.304203,0.29429 -1.455453,0.41574 -0.15125,0.12145 -0.74656,0.33891 -1.32291,0.48325 -2.77222,0.69427 -3.49069,0.90448 -4.26291,1.24726 -0.45855,0.20355 -1.07959,0.37009 -1.38008,0.37009 -0.30049,0 -0.93734,0.16691 -1.41522,0.3709 -0.47788,0.20399 -1.58325,0.57143 -2.45638,0.81653 -0.87312,0.24509 -1.94468,0.56585 -2.38125,0.71278 -0.43656,0.14694 -1.31684,0.37441 -1.95617,0.50549 -0.63934,0.13109 -1.29418,0.34284 -1.45521,0.47058 -0.16103,0.12773 -0.64997,0.29744 -1.08653,0.37713 -0.43657,0.0797 -1.62719,0.40011 -2.64584,0.71205 -1.01864,0.31194 -2.44739,0.73051 -3.175,0.93015 -0.7276,0.19964 -1.91823,0.54399 -2.64583,0.76523 -0.7276,0.22123 -1.8587,0.54218 -2.51354,0.71322 -0.65484,0.17104 -1.42875,0.40214 -1.71979,0.51355 -1.59905,0.61212 -4.09137,1.31448 -4.66444,1.31448 -0.36211,0 -0.8895,0.1748 -1.17197,0.38846 -0.28248,0.21365 -0.81125,0.39166 -1.17505,0.39556 -0.59058,0.006 -1.45745,0.24044 -4.10104,1.10745 -0.43657,0.14317 -1.3606,0.42599 -2.05342,0.62848 -0.69281,0.20249 -1.88344,0.55082 -2.64583,0.77407 -0.76239,0.22325 -1.98148,0.53864 -2.70909,0.70086 -0.7276,0.16223 -1.43602,0.40131 -1.57427,0.53129 -0.13824,0.12998 -0.61449,0.23706 -1.05833,0.23796 -0.44384,8.9e-4 -1.15015,0.1806 -1.56959,0.39934 -0.41944,0.21875 -1.25287,0.47239 -1.85208,0.56366 -0.59921,0.0913 -1.20854,0.2581 -1.35406,0.37073 -0.14552,0.11263 -0.74083,0.28421 -1.32292,0.38128 -0.58208,0.0971 -1.41552,0.33309 -1.85208,0.52447 -2.57862,1.13045 -7.80821,1.56634 -9.58182,0.79866 -4.20683,-1.82085 -6.65228,-4.08295 -9.37686,-8.67381 -0.41403,-0.69763 -0.75278,-1.39401 -0.75278,-1.54752 0,-0.1535 -0.16849,-0.65428 -0.37443,-1.11283 -0.74526,-1.65942 -1.01727,-5.04522 -0.64939,-8.08322 0.32367,-2.67296 0.39905,-2.8926 1.60505,-4.67646 0.69599,-1.02947 1.72707,-2.24275 2.29129,-2.69616 1.21154,-0.97363 3.60071,-2.29739 4.53582,-2.51315 0.3638,-0.084 1.91161,-0.46191 3.43958,-0.83991 3.44673,-0.8527 5.03389,-1.23614 9.39271,-2.2692 4.32969,-1.02616 20.45739,-4.96251 22.225,-5.42454 0.7276,-0.19019 2.03729,-0.53602 2.91041,-0.76852 0.87313,-0.2325 2.06375,-0.5324 2.64584,-0.66644 0.58208,-0.13405 2.18942,-0.54037 3.57187,-0.90294 2.75849,-0.72346 12.88186,-3.32745 16.33802,-4.20256 1.20055,-0.30398 2.18282,-0.64446 2.18282,-0.7566 0,-0.11215 -1.51805,-1.20619 -3.37344,-2.43119 -3.03243,-2.00213 -3.68102,-2.31468 -6.41615,-3.09181 -3.07386,-0.87338 -7.22752,-2.06676 -9.65729,-2.77462 -3.02571,-0.88147 -3.99619,-1.15928 -4.49792,-1.2876 -1.45272,-0.37152 -6.96241,-1.96057 -9.78958,-2.82341 -0.87312,-0.26648 -2.24234,-0.67284 -3.04271,-0.90302 -0.80036,-0.23019 -2.52677,-0.72812 -3.83646,-1.10651 -1.30968,-0.37839 -3.03609,-0.86057 -3.83645,-1.0715 -0.80037,-0.21094 -1.8124,-0.48903 -2.24896,-0.61799 -0.43657,-0.12895 -1.40825,-0.40775 -2.15929,-0.61954 -0.75105,-0.2118 -1.47487,-0.45265 -1.6085,-0.53524 -0.13362,-0.0826 -1.03579,-0.27681 -2.00481,-0.43161 -2.24819,-0.35915 -3.74533,-0.007 -5.17436,1.21584 -1.38728,1.18746 -1.86022,3.01808 -1.40798,5.44987 0.24096,1.29572 0.49992,1.82659 1.28137,2.62687 1.15546,1.1833 2.40361,1.60518 12.52878,4.23481 2.25557,0.5858 4.75588,1.23724 5.55625,1.44765 0.80036,0.21042 2.11005,0.54655 2.91041,0.74696 4.61088,1.15459 4.49792,1.08848 4.49792,2.63236 0,1.24871 -0.50177,2.11177 -1.53742,2.6444 -0.62233,0.32006 -0.99349,0.29896 -2.9605,-0.16836 -1.23692,-0.29387 -2.63995,-0.69735 -3.11783,-0.89663 -0.47788,-0.19927 -1.16631,-0.36231 -1.52985,-0.36231 -0.36354,0 -1.08842,-0.17859 -1.61084,-0.39687 -0.52242,-0.21829 -1.21176,-0.39688 -1.53187,-0.39688 -0.3201,0 -1.10923,-0.16439 -1.75362,-0.3653 -1.97094,-0.61454 -7.92582,-2.29641 -9.90286,-2.79694 -1.09238,-0.27655 -3.65649,-1.70127 -4.65661,-2.58739 -1.24634,-1.10428 -2.43162,-2.94289 -2.94553,-4.56912 -0.52738,-1.66886 -0.57177,-2.8088 -0.17515,-4.49792 0.15376,-0.65484 0.28182,-1.59388 0.28457,-2.08674 0.008,-1.4958 2.17254,-4.40583 4.18543,-5.62786 3.89743,-2.36616 11.26144,-1.3666 22.62187,3.07059 1.74625,0.68206 3.53499,1.33252 3.97497,1.44547 0.43999,0.11295 1.05724,0.34305 1.37167,0.51133 0.31444,0.16828 0.88309,0.30596 1.26369,0.30596 0.38059,0 1.0135,0.16268 1.40646,0.36152 0.39295,0.19883 1.19071,0.44761 1.77279,0.55284 0.58209,0.10523 1.1774,0.28472 1.32292,0.39886 0.14552,0.11414 0.82736,0.28896 1.51519,0.38849 0.68783,0.0995 1.31478,0.2848 1.39323,0.41173 0.0785,0.12693 0.79717,0.31256 1.59716,0.41251 0.8,0.1 1.51952,0.28688 1.59895,0.41539 0.19949,0.32279 1.70068,0.29549 1.70068,-0.0309 0,-0.14552 -0.10231,-0.26458 -0.22735,-0.26458 -0.12504,0 -0.75012,-0.41557 -1.38906,-0.92348 -0.63894,-0.50791 -1.24998,-0.92463 -1.35786,-0.92604 -0.10789,-0.001 -0.71515,-0.38952 -1.34948,-0.86246 -0.63432,-0.47295 -1.37949,-1.00967 -1.65593,-1.19273 -0.27644,-0.18305 -1.36817,-0.92719 -2.42608,-1.65364 -1.05791,-0.72645 -1.99327,-1.32082 -2.07859,-1.32082 -0.0853,0 -0.60611,-0.35719 -1.15732,-0.79375 -0.5512,-0.43656 -1.0732,-0.79375 -1.15998,-0.79375 -0.0868,0 -0.93421,-0.53156 -1.88316,-1.18123 -0.94895,-0.64968 -2.23201,-1.47815 -2.85125,-1.84104 -0.61923,-0.3629 -1.3665,-0.87314 -1.66059,-1.13388 -0.70614,-0.62602 -2.1758,-1.66468 -2.35547,-1.66468 -0.16874,0 -5.43378,-3.43784 -5.86598,-3.83023 -0.16407,-0.14895 -0.56851,-0.44942 -0.89876,-0.6677 -1.11358,-0.73604 -2.09021,-1.81154 -2.20576,-2.42905 -0.0632,-0.33751 -0.2562,-1.4471 -0.42899,-2.46574 -0.48239,-2.84376 -0.9532,-5.25769 -1.70177,-8.72536 -0.37627,-1.74301 -0.68412,-3.55169 -0.68412,-4.01928 0,-0.4676 -0.10972,-0.91799 -0.24382,-1.00087 -0.13411,-0.0829 -0.32115,-0.95311 -0.41565,-1.93384 -0.0945,-0.98073 -0.34198,-2.31038 -0.54993,-2.95477 -0.20796,-0.64438 -0.37939,-1.53735 -0.38097,-1.98437 -0.002,-0.44702 -0.18016,-1.39723 -0.39687,-2.11158 -0.21671,-0.71436 -0.39401,-1.7484 -0.39401,-2.29788 0,-0.54949 -0.12887,-1.33424 -0.28637,-1.74389 -0.37114,-0.9653 -0.84325,-4.62299 -0.8054,-6.23988 0.0284,-1.21339 0.59091,-2.57127 1.88864,-4.55912 0.28501,-0.43656 0.6405,-1.03187 0.78999,-1.32292 0.30613,-0.59598 0.64657,-1.1703 3.13683,-5.29166 0.96721,-1.600733 1.87763,-3.117654 2.02316,-3.370939 0.14554,-0.253286 0.88969,-1.465968 1.65367,-2.694851 0.76398,-1.228882 1.38906,-2.311159 1.38906,-2.405059 0,-0.0939 0.39945,-0.786218 0.88767,-1.538483 0.95528,-1.471932 4.06284,-6.698854 5.139,-8.643797 0.36233,-0.654844 1.27923,-2.202657 2.03756,-3.439584 0.75833,-1.236927 1.95111,-3.260989 2.65062,-4.497917 1.55307,-2.746244 2.01156,-3.175 3.39519,-3.175 0.95814,0 1.22504,0.165309 2.6715,1.654631 0.88385,0.910046 2.07114,2.189968 2.63842,2.844271 2.41155,2.781511 10.2247,10.582349 10.59905,10.582349 0.31781,0 0.41301,-0.336502 0.43037,-1.521354 0.0123,-0.836745 0.0624,-1.997605 0.11154,-2.579688 0.22748,-2.697797 0.69703,-10.273095 0.9266,-14.948959 0.13932,-2.837656 0.3224,-5.635625 0.40684,-6.217708 0.0844,-0.582084 0.27327,-3.320521 0.41963,-6.085417 0.14635,-2.764896 0.32819,-5.855616 0.4041,-6.868266 l 0.138,-1.841183 3.36877,-3.450484 c 7.30711,-7.484356 11.91588,-12.324575 17.750143,-18.641566 3.05521,-3.308004 4.25736,-4.095362 5.65497,-3.703799 0.45503,0.127481 1.16257,0.601857 1.57232,1.054168 l 0.74501,0.822385 -0.16933,3.746664 c -0.0931,2.060665 -0.28812,5.94932 -0.43332,8.641455 -0.14519,2.692136 -0.32959,6.866386 -0.40977,9.276111 l -0.14577,4.381319 2.63481,3.953056 c 1.44914,2.174181 3.87655,5.798525 5.39423,8.054098 1.51768,2.255573 3.05512,4.666589 3.41653,5.357813 0.71297,1.363601 1.49727,1.67165 1.68407,0.661458 0.0605,-0.327421 0.24565,-1.250156 0.41133,-2.05052 0.16569,-0.800365 0.41879,-2.110053 0.56246,-2.910417 0.14366,-0.800365 0.3398,-1.633802 0.43587,-1.852084 0.0961,-0.218281 0.32331,-1.051718 0.50499,-1.852083 0.18169,-0.800365 0.46514,-2.050521 0.62989,-2.778125 0.16475,-0.727604 0.43055,-1.739636 0.59066,-2.248958 0.1601,-0.509323 0.32019,-1.580886 0.35573,-2.381251 0.0554,-1.248004 0.20319,-1.616033 1.03778,-2.584688 1.10225,-1.279312 2.28239,-1.984141 3.11958,-1.863138 0.92641,0.1339 1.84818,1.687828 6.87604,11.591577 1.7361,3.419739 3.78661,7.348802 4.55669,8.73125 0.77007,1.382448 2.5439,4.631469 3.94185,7.220046 l 2.54171,4.706505 -0.0115,2.304954 c -0.006,1.267724 -0.12257,3.55511 -0.25829,5.083079 -0.13571,1.527969 -0.42771,5.077259 -0.64889,7.887312 -0.22117,2.810054 -0.46979,5.378732 -0.55247,5.708175 -0.28634,1.140862 0.01,1.191472 10.07014,1.720912 1.89177,0.0996 3.69634,0.32374 4.01016,0.49817 0.53898,0.29959 1.48084,2.1078 6.50886,12.49585 3.47357,7.17651 3.90077,8.20724 3.90077,9.41164 0,2.31152 -2.65089,11.13723 -4.76669,15.86992 -4.10057,9.17229 -8.28349,16.03969 -11.47832,18.84479 -1.00405,0.88157 -5.20482,3.68652 -5.93901,3.96561 -0.24082,0.0915 -1.56895,0.8178 -2.9514,1.61389 -5.01496,2.8879 -11.22031,7.44314 -10.14191,7.445 0.58702,0.001 4.27057,-1.00863 4.9128,-1.34658 0.25269,-0.13297 0.63548,-0.24176 0.85065,-0.24176 0.21517,0 0.96093,-0.17874 1.65724,-0.3972 0.69631,-0.21846 1.86133,-0.5696 2.58893,-0.78031 0.72761,-0.21071 2.57308,-0.74947 4.10104,-1.19725 2.81295,-0.82434 3.23307,-0.94771 8.20209,-2.40856 1.52797,-0.44921 3.07578,-0.91871 3.43958,-1.04335 1.41241,-0.48385 7.5819,-2.35676 8.33438,-2.53011 0.43656,-0.10057 0.91281,-0.2646 1.05833,-0.36451 0.14552,-0.0999 1.03849,-0.39472 1.98437,-0.65512 0.94589,-0.26041 2.24702,-0.63849 2.89141,-0.84019 0.64438,-0.2017 2.21137,-0.36673 3.48218,-0.36673 3.81203,0 6.42403,1.36965 8.29812,4.35126 1.36437,2.17068 1.73246,3.47261 1.73246,6.12764 0,3.66407 -0.86258,5.73712 -3.34656,8.04284 -1.57931,1.46598 -2.15324,1.79359 -3.52691,2.01325 -0.59167,0.0946 -1.13542,0.26856 -1.20835,0.38656 -0.0729,0.118 -0.66707,0.29469 -1.32031,0.39265 -0.65324,0.098 -1.24855,0.27655 -1.32291,0.39688 -0.0744,0.12032 -0.69798,0.29425 -1.38581,0.38652 -0.68784,0.0923 -1.6995,0.33727 -2.24815,0.54446 -0.54865,0.20718 -1.27918,0.37669 -1.6234,0.37669 -0.34422,0 -0.96689,0.17786 -1.38371,0.39524 -0.41682,0.21739 -1.0555,0.39539 -1.41931,0.39557 -0.3638,1.8e-4 -1.19724,0.16899 -1.85208,0.37514 -2.76165,0.86938 -3.73345,0.99239 -4.39832,0.55675 -0.77219,-0.50596 -1.49997,-2.17181 -1.29887,-2.97305 0.0821,-0.32727 0.41534,-0.76668 0.74045,-0.97646 0.52323,-0.33761 7.3417,-2.17234 10.49911,-2.82512 0.6472,-0.1338 1.54017,-0.35795 1.98437,-0.4981 0.4442,-0.14015 1.84848,-0.56295 3.12061,-0.93956 3.67745,-1.08869 4.96824,-2.62191 4.95689,-5.88783 -0.0118,-3.39992 -2.03464,-5.61425 -5.12867,-5.61425 -0.76004,1e-5 -2.4432,0.34516 -3.86099,0.79176 -1.38244,0.43546 -3.16838,0.9853 -3.96875,1.22186 -0.80036,0.23656 -1.77252,0.54537 -2.16036,0.68625 -0.38783,0.14088 -1.10221,0.35283 -1.5875,0.471 -0.48529,0.11816 -1.95391,0.53323 -3.26359,0.92236 -1.30969,0.38914 -3.81,1.10917 -5.55625,1.60007 -2.93996,0.82647 -6.01043,1.71462 -9.26042,2.67863 -0.7276,0.21582 -1.91823,0.55647 -2.64583,0.757 -0.72761,0.20053 -2.45401,0.67951 -3.83646,1.06441 -2.99385,0.83354 -4.79956,1.32807 -6.67953,1.82933 -0.76465,0.20388 -3.77151,1.04548 -6.68193,1.87021 -2.91042,0.82474 -5.82745,1.60816 -6.48229,1.74094 -0.65485,0.13277 -1.48828,0.34702 -1.85209,0.4761 -0.3638,0.12907 -1.37583,0.42645 -2.24895,0.66083 -0.87313,0.23438 -2.7186,0.73996 -4.10105,1.12351 -1.38244,0.38355 -2.93026,0.78539 -3.43958,0.89297 -0.50932,0.10758 -1.87854,0.45856 -3.04271,0.77995 -1.16416,0.32139 -4.37885,1.16388 -7.143743,1.8722 -2.7649,0.70833 -5.74146,1.48167 -6.61459,1.71856 -2.9994,0.81375 -7.67389,2.03275 -8.59895,2.24241 -0.86592,0.19625 -9.81251,2.48276 -18.16462,4.64238 -2.01493,0.521 -4.85413,1.23673 -6.30934,1.5905 -1.45521,0.35378 -3.00302,0.7503 -3.43959,0.88117 -1.42535,0.42729 -7.08129,1.85993 -9.92187,2.51321 -3.6736,0.84486 -10.16884,2.37966 -10.25368,2.42292 -0.037,0.0189 0.9272,1.04221 2.14261,2.27415 4.24618,4.30391 5.99091,9.75162 4.78646,14.94512 -0.22781,0.98227 -0.52965,2.00169 -0.67077,2.26537 -0.31746,0.59318 -0.002,0.61812 1.47299,0.11643 0.58695,-0.19965 1.72202,-0.5555 2.52239,-0.79078 0.80036,-0.23528 3.83646,-1.12942 6.74687,-1.98697 2.91042,-0.85755 5.5298,-1.62054 5.82084,-1.69552 0.78119,-0.20126 8.53886,-2.52814 9.92187,-2.97603 1.09392,-0.35426 5.76795,-1.72836 7.01146,-2.06127 0.60856,-0.16292 5.77202,-1.65041 7.54063,-2.17229 0.65484,-0.19324 2.20265,-0.6683 3.43958,-1.0557 2.83275,-0.88719 4.64918,-1.42506 5.77714,-1.71068 0.48529,-0.12288 1.19966,-0.3394 1.5875,-0.48116 0.38783,-0.14175 2.07437,-0.6439 3.74786,-1.11588 3.524093,-0.99392 8.038873,-2.32035 8.995833,-2.64296 0.3638,-0.12264 1.49489,-0.46878 2.51354,-0.76919 1.01865,-0.30041 3.63802,-1.09598 5.82083,-1.76792 5.57533,-1.71627 5.49476,-1.71089 6.34629,-0.42414 0.51886,0.78405 0.6786,1.32213 0.61658,2.07698 -0.0911,1.10944 -0.50835,1.41602 -3.19425,2.3473 -0.69215,0.23998 -1.20923,0.51598 -1.14907,0.61333 0.0602,0.0973 0.98366,0.46156 2.05221,0.80937 1.06855,0.3478 2.18095,0.73152 2.47199,0.85269 0.43387,0.18064 4.71228,1.66616 7.54063,2.6182 0.3638,0.12246 2.20927,0.76946 4.10104,1.43777 1.89177,0.66832 5.34458,1.86203 7.67292,2.65269 2.32833,0.79066 6.61458,2.2858 9.525,3.32253 2.91041,1.03673 6.48229,2.30009 7.9375,2.80746 1.4552,0.50737 3.44612,1.22143 4.42425,1.58679 0.97813,0.36537 1.88926,0.5958 2.02473,0.51208 0.14626,-0.0904 0.0956,-0.65301 -0.12478,-1.38523 -1.21527,-4.03802 0.78974,-10.24089 4.67221,-14.45438 1.71456,-1.86075 1.81481,-2.03301 1.33315,-2.29078 -0.28645,-0.15331 -0.76117,-0.27874 -1.05493,-0.27874 -0.29376,0 -0.8076,-0.10949 -1.14187,-0.2433 -0.90337,-0.36165 -3.33192,-1.04717 -10.92651,-3.08431 -2.47386,-0.66358 -5.33136,-1.47965 -6.35,-1.81349 -1.01865,-0.33385 -2.56646,-0.81255 -3.43959,-1.0638 -0.87312,-0.25125 -2.48047,-0.73182 -3.57187,-1.06794 -1.09141,-0.33613 -2.37118,-0.69214 -2.84394,-0.79114 -0.47277,-0.099 -1.03831,-0.43519 -1.25678,-0.74709 -0.60435,-0.86283 -0.50072,-2.60099 0.2177,-3.65136 0.54271,-0.79348 0.73685,-0.89143 1.65365,-0.83433 0.57131,0.0356 1.57452,0.24316 2.22937,0.46128 1.16166,0.38693 3.68969,1.15964 6.08541,1.86006 0.65485,0.19145 3.39329,1.02114 6.08542,1.84375 2.69214,0.82261 5.49011,1.67172 6.21771,1.88691 1.644,0.48621 3.27228,0.9716 5.15937,1.538 0.80037,0.24023 1.8124,0.5427 2.24896,0.67216 0.43657,0.12946 1.38907,0.41299 2.11667,0.63006 2.38993,0.71301 6.05659,1.68539 7.67292,2.03482 3.54037,0.76538 6.49284,3.11121 8.22092,6.53178 0.69845,1.38252 0.77974,1.82189 0.86188,4.65866 0.0997,3.44213 -0.40199,6.00977 -1.74013,8.90636 -0.74186,1.60586 -3.9397,6.08542 -4.34422,6.08542 -0.1406,0 -0.63465,0.28844 -1.09788,0.64098 -2.11729,1.61135 -5.52717,2.25797 -9.13782,1.73283 z m 5.42003,-5.53878 c 2.5965,-1.48922 5.00411,-5.20724 5.79817,-8.95398 0.67145,-3.16818 0.37717,-4.6764 -1.2797,-6.5587 -1.36127,-1.54649 -2.21669,-1.95985 -4.05578,-1.95985 -2.70688,0 -5.21063,1.83617 -7.15275,5.24557 -2.14051,3.75767 -2.52484,7.42433 -1.03117,9.83761 1.87585,3.03074 4.94631,3.9809 7.72123,2.38935 z M 34.079627,222.16436 c 2.57563,-1.24684 3.93201,-4.07784 3.74106,-7.80824 -0.34008,-6.644 -7.44158,-12.60881 -11.50615,-9.66445 -3.78979,2.74531 -3.40918,9.50729 0.83949,14.91453 2.24326,2.85496 4.55134,3.70752 6.9256,2.55816 z m 64.37799,-42.02871 c 0.50933,-0.12936 4.200263,-1.08389 8.202083,-2.12118 4.00182,-1.0373 7.93089,-2.05091 8.73125,-2.25246 5.96961,-1.50335 6.44895,-1.66088 6.94682,-2.28305 2.00818,-2.50953 5.2751,-5.44969 9.85422,-8.86859 4.30241,-3.21229 5.39042,-3.90202 13.36146,-8.47031 1.23693,-0.70889 2.968,-2.00327 3.84682,-2.87641 2.27253,-2.2578 5.34639,-7.38955 8.03427,-13.41309 0.30488,-0.68324 0.55433,-1.30001 0.55433,-1.3706 0,-0.0706 0.34194,-0.8808 0.75988,-1.80045 0.41793,-0.91966 0.9663,-2.26742 1.21861,-2.99503 0.2523,-0.7276 0.56218,-1.56104 0.68862,-1.85208 0.12644,-0.29104 0.76869,-1.93991 1.42722,-3.66416 1.52368,-3.98946 1.53378,-4.72426 0.10473,-7.61751 -0.60094,-1.21664 -1.86127,-3.81942 -2.80074,-5.78396 -3.33562,-6.97513 -4.36792,-8.96193 -4.7283,-9.10022 -0.20068,-0.077 -2.89705,-0.2137 -5.99193,-0.30375 -6.53052,-0.19003 -8.26123,-0.42272 -9.11585,-1.2256 -0.54206,-0.50924 -0.61216,-0.8201 -0.6115,-2.71186 4.1e-4,-1.17518 0.11307,-3.148725 0.25036,-4.385652 0.13728,-1.236927 0.43762,-4.749271 0.66742,-7.805209 0.2298,-3.055937 0.53501,-6.43698 0.67823,-7.513427 l 0.26041,-1.957177 -1.11055,-2.011573 c -1.91206,-3.463354 -2.37271,-4.318848 -3.7901,-7.038657 -3.39174,-6.508374 -5.04,-9.619176 -5.74777,-10.847917 -0.41912,-0.727604 -1.06205,-1.947994 -1.42874,-2.711979 -0.75162,-1.565971 -1.03243,-1.715654 -1.24093,-0.661458 -0.0791,0.400182 -0.39365,1.858698 -0.69891,3.241146 -0.30526,1.382448 -0.66022,2.989791 -0.78881,3.571875 -0.12858,0.582083 -0.41057,1.832239 -0.62665,2.778125 -0.21608,0.945885 -0.8173,3.610322 -1.33604,5.920971 -0.54214,2.414858 -1.13371,4.411726 -1.3913,4.696354 -0.49665,0.548791 -1.93776,0.66388 -2.76554,0.220861 -0.42193,-0.22581 -1.56738,-1.762498 -3.28911,-4.412531 -0.14552,-0.223981 -1.21709,-1.866576 -2.38125,-3.65021 -1.88058,-2.881252 -2.60995,-4.029529 -4.11318,-6.475546 -1.32577,-2.157268 -2.41575,-3.856252 -3.88631,-6.057702 -0.91179,-1.364969 -1.65781,-2.575438 -1.65781,-2.689931 0,-0.114493 -0.0931,-0.247857 -0.20686,-0.296364 -0.35344,-0.150682 -2.43833,-3.433125 -2.60671,-4.103973 -0.0878,-0.349835 -0.0116,-3.577994 0.16937,-7.173685 0.18095,-3.595691 0.38078,-7.96637 0.44406,-9.71262 l 0.11505,-3.175 -2.33089,2.403135 c -7.591603,7.826909 -15.235043,15.973041 -15.798013,16.837025 -0.4541,0.696899 -0.8501,4.594294 -1.2173,11.980674 -0.13745,2.764896 -0.32789,5.681927 -0.4232,6.482292 -0.0953,0.800365 -0.26667,3.241146 -0.38081,5.423958 -0.68985,13.193099 -1.32704,21.473899 -1.69862,22.075139 -0.32904,0.532398 -1.85066,1.063411 -2.54886,0.8895 -0.94069,-0.234311 -1.93776,-1.000489 -3.48758,-2.679948 -0.76052,-0.824129 -3.16976,-3.344078 -5.35387,-5.599887 -2.18411,-2.255808 -4.9738,-5.206828 -6.1993,-6.55782 -2.47862,-2.732424 -2.35036,-2.716191 -3.58773,-0.454067 -1.00826,1.843278 -3.29476,5.761329 -5.59474,9.586927 -1.07034,1.78031 -1.94607,3.289721 -1.94607,3.354246 0,0.09171 -4.92497,8.369195 -6.0747,10.209875 -0.91972,1.47243 -2.44676,4.04221 -3.06586,5.15937 -0.40322,0.72761 -0.98479,1.73964 -1.29239,2.24896 -1.17042,1.93799 -1.28955,2.32526 -1.11545,3.626 0.30798,2.30085 0.91148,5.71587 1.62694,9.20629 0.80608,3.93254 1.35718,6.76786 1.72281,8.86355 0.13963,0.80036 0.38106,2.11005 0.5365,2.91041 0.15545,0.80037 0.46446,2.40771 0.68671,3.57188 0.22224,1.16416 0.57294,2.85551 0.77934,3.75854 0.20639,0.90303 0.37526,1.95051 0.37526,2.32774 0,0.38444 0.27956,0.94495 0.63613,1.2754 0.61359,0.56866 8.43107,5.95351 11.39897,7.85187 0.79628,0.50932 5.32463,3.54542 10.06301,6.74687 4.73838,3.20146 8.89817,5.99943 9.24399,6.21771 0.61978,0.39122 6.73088,4.53924 10.85894,7.37072 1.16417,0.79851 2.65245,1.84244 3.3073,2.31983 0.65484,0.4774 1.78593,1.27725 2.51354,1.77745 0.7276,0.5002 1.54973,1.16062 1.82694,1.46761 0.54682,0.60553 1.1068,0.67399 2.53868,0.31034 z"
         id="path1" /><path
         style="fill:#00b9e8;fill-opacity:1"
         d="m 88.009488,149.42627 c -0.291042,-0.0529 -0.720621,-0.35708 -0.95462,-0.67596 -0.400395,-0.54563 -0.367879,-0.72003 0.552051,-2.96103 0.930354,-2.26639 1.405195,-3.31821 3.702806,-8.20208 0.54768,-1.16417 1.415913,-3.00964 1.929406,-4.10105 0.513493,-1.0914 1.600717,-3.38768 2.416053,-5.10284 0.815336,-1.71516 1.482429,-3.17796 1.482429,-3.25066 0,-0.0727 0.701383,-1.58642 1.558629,-3.36382 0.857246,-1.7774 1.883548,-3.94601 2.280668,-4.81914 0.71747,-1.57743 1.11049,-2.41741 3.94315,-8.42746 0.81288,-1.72469 1.47797,-3.24273 1.47797,-3.37344 0,-0.1307 0.1096,-0.23764 0.24356,-0.23764 0.13396,0 0.32555,-0.37329 0.42576,-0.82953 0.1002,-0.45624 0.57522,-1.6171 1.0556,-2.57968 0.48037,-0.96259 1.18902,-2.464539 1.57478,-3.337664 0.38575,-0.873125 0.81392,-1.766094 0.95148,-1.984375 0.13756,-0.218281 0.32322,-0.575469 0.41259,-0.79375 0.55626,-1.358638 1.24057,-2.666216 1.46935,-2.807606 0.47032,-0.290677 2.75138,-0.213125 3.55794,0.120964 1.16985,0.484568 1.10318,1.410685 -0.32045,4.451202 -0.66982,1.430586 -1.39892,2.988019 -1.62022,3.460959 -0.22129,0.47295 -0.51487,0.8599 -0.6524,0.8599 -0.13753,0 -0.18927,0.0983 -0.11498,0.21855 0.0743,0.1202 -0.39494,1.31738 -1.04272,2.6604 -0.64779,1.34301 -1.17779,2.53977 -1.17779,2.65946 0,0.1197 -0.16425,0.35394 -0.36499,0.52054 -0.20074,0.1666 -0.43747,0.66532 -0.52606,1.10827 -0.10443,0.52217 -0.26957,0.73829 -0.46964,0.61464 -0.18098,-0.11185 -0.23778,-0.0762 -0.13737,0.0863 0.16486,0.26675 -0.28581,1.42008 -1.99144,5.09643 -0.43884,0.94588 -0.90184,1.98768 -1.0289,2.3151 -0.12705,0.32742 -0.36004,0.59531 -0.51775,0.59531 -0.15771,0 -0.21777,0.11161 -0.13346,0.24802 0.0843,0.13641 -0.30784,1.23774 -0.87144,2.4474 -0.5636,1.20966 -1.35619,2.94352 -1.7613,3.85302 -0.40512,0.90951 -0.83938,1.65365 -0.96503,1.65365 -0.12565,0 -0.22845,0.21702 -0.22845,0.48228 0,0.47455 -1.48357,3.75738 -1.81474,4.01563 -0.0933,0.0728 -0.20487,0.31089 -0.24794,0.52917 -0.0954,0.48353 -0.388976,1.12736 -2.894965,6.34864 -1.082219,2.25483 -2.047564,4.15983 -2.14521,4.23334 -0.09765,0.0735 -0.404873,0.78849 -0.682726,1.58885 -0.277852,0.80037 -0.834472,2.11006 -1.236933,2.91042 -0.402462,0.80037 -0.853444,1.7764 -1.002184,2.16898 -0.489298,1.29141 -2.194668,1.95213 -4.130514,1.6003 z m 35.494592,-11.13294 c -0.24115,-0.26647 -0.3489,-0.58322 -0.23944,-0.70388 0.10946,-0.12066 0.0661,-0.14357 -0.0964,-0.0509 -0.38941,0.22211 -1.0716,-0.55672 -1.30431,-1.48907 -0.16502,-0.66112 -0.0126,-0.91203 1.36844,-2.25311 0.85478,-0.83003 2.14946,-1.98352 2.87707,-2.56332 0.7276,-0.57979 1.41576,-1.19878 1.52924,-1.37551 0.22855,-0.35595 3.24227,-2.72137 3.46722,-2.72137 0.078,0 0.72385,-0.56555 1.43518,-1.25677 1.63057,-1.58449 2.66739,-2.46409 2.80568,-2.38026 0.14684,0.089 1.21383,-1.28651 1.21325,-1.56408 -2.6e-4,-0.12257 -0.53605,-0.56121 -1.19063,-0.97475 -0.65458,-0.41354 -1.19015,-0.86003 -1.19015,-0.99219 0,-0.13216 -0.12538,-0.24029 -0.27862,-0.24029 -0.48107,0 -2.10958,-1.22777 -1.90279,-1.43456 0.10837,-0.10837 0.062,-0.15735 -0.10299,-0.10884 -0.37965,0.1116 -3.80102,-2.36835 -3.80102,-2.75513 0,-0.15817 -0.0752,-0.21239 -0.16708,-0.1205 -0.27069,0.2707 -1.18761,-0.34258 -0.99007,-0.6622 0.10194,-0.16495 0.0606,-0.21805 -0.0949,-0.12193 -0.15152,0.0936 -0.42262,-0.007 -0.60245,-0.22371 -0.17983,-0.21668 -0.49097,-0.39396 -0.69144,-0.39396 -0.20046,0 -0.36447,-0.10248 -0.36447,-0.22774 0,-0.12526 -0.77378,-0.72815 -1.7195,-1.33977 -2.42116,-1.56579 -2.46781,-1.73042 -1.04463,-3.68628 0.65048,-0.89396 1.33016,-1.62342 1.51039,-1.62102 0.41382,0.005 1.79962,0.85017 3.89957,2.37689 0.90072,0.65485 2.0384,1.43466 2.52819,1.73291 0.48979,0.29826 1.25138,0.8638 1.69242,1.25677 0.44104,0.39297 0.87588,0.71449 0.96631,0.71449 0.0904,0 0.89513,0.55024 1.78823,1.22276 0.89309,0.67252 1.77195,1.28031 1.95302,1.35064 0.18106,0.0703 0.25196,0.25287 0.15755,0.40562 -0.0944,0.15276 -0.055,0.20566 0.0875,0.11755 0.14256,-0.0881 0.96463,0.40368 1.82682,1.09285 0.8622,0.68917 2.19271,1.64824 2.95669,2.13126 1.36596,0.86363 1.4822,1.02083 1.44098,1.94884 -0.067,1.50874 -0.25155,1.89855 -1.36814,2.89012 -0.65853,0.58479 -1.45223,1.28967 -1.76378,1.56639 -0.31155,0.27673 -0.61473,0.50314 -0.67373,0.50314 -0.059,0 -0.85913,0.71322 -1.77807,1.58493 -0.91894,0.87171 -1.77957,1.5177 -1.91251,1.43554 -0.13294,-0.0822 -0.209,-0.0433 -0.16901,0.0863 0.04,0.12965 -0.87973,1.06123 -2.04381,2.07019 -1.16408,1.00895 -2.65236,2.33076 -3.30729,2.93736 -0.65493,0.60659 -1.54797,1.37955 -1.98454,1.71769 -0.43656,0.33814 -1.24966,1.06223 -1.80689,1.60909 -1.13669,1.11553 -2.19889,1.30128 -2.91518,0.50979 z m -44.561395,-1.30145 c -0.752758,-0.5457 -1.372159,-1.12811 -1.376445,-1.29423 -0.0043,-0.16613 -0.31032,-0.37798 -0.680073,-0.47078 -0.369754,-0.0928 -0.600852,-0.2843 -0.513552,-0.42556 0.0873,-0.14125 -0.01654,-0.25682 -0.230763,-0.25682 -0.21422,0 -1.627807,-0.98227 -3.141305,-2.18282 -5.055237,-4.00994 -6.092007,-4.82229 -7.452034,-5.8389 -0.743339,-0.55564 -2.036134,-1.60561 -2.872879,-2.33327 -1.364913,-1.18697 -1.521354,-1.42892 -1.521354,-2.35288 0,-1.04952 0.75603,-2.1088 1.505098,-2.1088 0.190842,0 0.346985,-0.12201 0.346985,-0.27113 0,-0.14912 0.297656,-0.3843 0.661458,-0.52262 0.363802,-0.13832 0.661459,-0.34782 0.661459,-0.46557 0,-0.11775 0.386953,-0.44 0.859895,-0.71612 0.472943,-0.27612 1.621793,-1.07569 2.553,-1.77684 0.931207,-0.70114 1.787061,-1.2748 1.901899,-1.2748 0.114838,0 0.603098,-0.36225 1.085022,-0.80501 0.481924,-0.44275 1.471538,-1.18446 2.199142,-1.64824 1.06494,-0.67881 4.866597,-3.40767 6.085416,-4.36817 1.914395,-1.50866 2.447401,-1.47492 3.813951,0.24139 0.594463,0.74662 1.080841,1.53122 1.080841,1.74356 0,0.48695 -1.350591,1.94018 -1.638042,1.76252 -0.117723,-0.0728 -0.214041,-0.0208 -0.214041,0.1154 0,0.25536 -3.167748,2.6568 -4.272695,3.2391 -0.342153,0.18031 -0.681628,0.39998 -0.754389,0.48816 -0.480911,0.58285 -4.082077,3.0889 -4.825669,3.35818 -0.253025,0.0916 -0.406142,0.25382 -0.34026,0.36042 0.06588,0.1066 -0.709364,0.81231 -1.722768,1.56826 -1.652244,1.23248 -2.218688,1.88193 -1.641411,1.88193 0.110627,0 0.49758,0.27328 0.859895,0.60728 0.666231,0.61418 5.008089,3.9607 6.818764,5.25562 0.541058,0.38694 1.489757,1.17232 2.10822,1.7453 0.618464,0.57297 1.124479,0.98639 1.124479,0.91871 0,-0.18012 1.846687,1.21516 2.844271,2.14901 1.230987,1.15235 1.181411,2.22134 -0.167475,3.61127 -0.565055,0.58225 -1.19581,1.05864 -1.40168,1.05864 -0.205869,0 -0.990201,-0.44648 -1.74296,-0.99219 z"
         id="path3" /><path
         style="fill:#00b9e8;fill-opacity:1;stroke-width:0.973349"
         d="m 87.107476,280.9988 c -0.991455,-0.10993 -3.135411,-0.31685 -4.764335,-0.45979 -4.905666,-0.43073 -5.115845,-0.48718 -5.285183,-1.42189 -0.189443,-1.04561 0.439935,-9.71448 1.64438,-22.64135 0.116286,-1.24514 0.336735,-2.38991 0.490857,-2.54388 0.201556,-0.20155 1.240345,-0.19235 3.710815,0.0339 1.887021,0.17153 5.285182,0.46998 7.55143,0.66258 2.266248,0.19282 4.444118,0.42926 4.839679,0.52559 0.679232,0.16522 0.710293,0.2345 0.559214,1.24171 -0.08777,0.5866 -0.243231,1.47028 -0.344495,1.96371 l -0.184593,0.89721 -1.533413,-0.0243 c -0.843348,-0.009 -3.184449,-0.16958 -5.202386,-0.34982 -2.017936,-0.18071 -3.935046,-0.26162 -4.260346,-0.17975 -0.481119,0.12073 -0.649438,0.42927 -0.902206,1.6532 -0.408927,1.97865 -0.402628,4.55381 0.0097,4.89592 0.176846,0.14628 1.133172,0.32222 2.124624,0.39101 4.151139,0.2873 7.848338,0.65942 8.100232,0.8151 0.327042,0.20203 0.353695,3.21036 0.03395,3.71759 -0.256779,0.40603 -3.489146,0.29217 -7.974547,-0.28054 -2.342364,-0.29892 -2.431077,-0.29167 -2.860789,0.23887 -0.649535,0.80205 -0.979875,5.45893 -0.41668,5.87086 0.358539,0.26211 3.378004,0.63106 9.04251,1.10468 l 2.060335,0.17249 0.07996,1.40265 c 0.145793,2.57048 0.122155,2.59484 -2.466696,2.55133 -1.236759,-0.0194 -3.059729,-0.12738 -4.051279,-0.23741 z m 28.586194,-0.27326 c -4.23438,-0.53087 -8.33649,-3.18143 -9.9941,-6.45779 -2.26814,-4.48273 -2.35006,-10.00329 -0.2093,-14.08339 0.80593,-1.53596 2.67173,-3.48136 4.11745,-4.29321 4.58616,-2.57527 11.38083,-2.61266 15.09512,-0.0832 0.49624,0.3377 0.9029,0.71005 0.90386,0.82706 0,0.38809 -2.34053,3.26399 -2.66005,3.26399 -0.17249,0 -0.55714,-0.17053 -0.85435,-0.37839 -1.72882,-1.21099 -5.39497,-1.59657 -7.73046,-0.81306 -1.65019,0.55365 -3.56835,2.20577 -4.19013,3.60907 -1.01151,2.28291 -1.09571,2.71127 -1.00342,5.10106 0.0761,1.95717 0.22433,2.67964 0.81135,3.94158 0.93346,2.00651 2.2507,3.35887 4.16869,4.27964 1.3043,0.62618 1.86636,0.74207 3.60538,0.74334 2.46248,0.002 4.1243,-0.52555 5.57836,-1.7702 l 1.02639,-0.87853 1.28817,1.25944 c 1.92069,1.87777 1.96584,2.03571 0.86988,3.03968 -1.24436,1.13975 -3.47582,2.20127 -5.53145,2.63136 -1.85553,0.3881 -2.61549,0.3973 -5.29153,0.0616 z m 19.5431,-2.13896 c -0.12643,-0.32899 0.009,-1.15885 0.92177,-5.5534 0.13231,-0.63737 0.42591,-2.20192 0.65265,-3.47671 0.22675,-1.27474 0.51905,-2.78133 0.64944,-3.34791 0.13041,-0.56655 0.48014,-2.36286 0.7774,-3.99173 0.29748,-1.62889 0.777,-4.12052 1.06621,-5.53694 1.18181,-5.7885 0.90559,-5.32554 3.46124,-5.80109 3.42742,-0.63776 3.02906,-0.72928 4.12182,0.94697 0.54003,0.82843 1.10135,1.71146 1.24747,1.96238 0.14579,0.25096 1.59827,2.67566 3.22703,5.38843 1.62893,2.71276 3.00882,5.05706 3.06656,5.20953 0.0571,0.15263 0.37745,0.71142 0.71083,1.24201 0.33334,0.53063 0.96588,1.63157 1.40581,2.44657 1.46323,2.71069 2.36039,4.30503 2.9588,5.25797 0.69934,1.11378 0.60817,1.22977 -1.4461,1.83841 -2.10419,0.62343 -2.67674,0.72092 -2.96162,0.5042 -0.27086,-0.20593 -0.65871,-0.88962 -2.1195,-3.73661 l -0.89188,-1.73832 -1.32712,0.006 c -0.73006,0.003 -1.79082,0.11724 -2.3574,0.25291 -0.56647,0.13564 -2.08987,0.42104 -3.38521,0.63379 -3.45616,0.56777 -3.55263,0.62308 -3.90119,2.23781 -0.16327,0.75681 -0.37355,2.01342 -0.46705,2.79247 -0.0936,0.77904 -0.2631,1.59759 -0.37648,1.819 -0.42201,0.82376 -4.75178,1.3777 -5.03328,0.64402 z m 10.07136,-11.59868 c 2.47329,-0.37115 4.25106,-0.82101 4.25106,-1.07534 0,-0.39778 -5.19128,-9.10394 -5.42851,-9.10394 -0.27375,0 -0.28246,0.0437 -1.15605,5.45713 -0.59995,3.71921 -0.67864,5.10169 -0.29021,5.10169 0.0528,0 1.23284,-0.171 2.62367,-0.37935 z m -92.710036,9.12239 c -0.56649,-0.11771 -1.957181,-0.39196 -3.090352,-0.60912 -4.127203,-0.79083 -5.546381,-1.10395 -5.700165,-1.25774 -0.168125,-0.16812 0.303303,-3.8407 0.684176,-5.33078 0.584611,-2.28553 1.609544,-6.67877 1.802523,-7.72595 0.43703,-2.37192 1.017958,-5.33716 1.412348,-7.21091 0.22336,-1.06234 0.518329,-2.56888 0.654962,-3.34791 0.484024,-2.75744 0.819789,-2.97107 3.481591,-2.21422 0.698566,0.19866 2.313052,0.55604 3.587896,0.79426 5.733693,1.07145 8.774333,2.54373 11.149015,5.39845 1.950007,2.34421 2.399631,3.64188 2.557196,7.38147 0.273747,6.49026 -3.430865,12.13069 -9.164655,13.95394 -1.485557,0.47239 -5.475984,0.56359 -7.374535,0.16861 z m 6.356095,-4.98081 c 0.75845,-0.35903 1.742976,-1.03335 2.187708,-1.49902 1.225569,-1.283 2.347743,-3.58644 2.681764,-5.50476 0.975319,-5.60055 -1.847681,-9.2338 -8.114819,-10.44391 -2.74727,-0.53049 -2.770138,-0.51838 -3.232118,1.71041 -0.842225,4.06461 -1.45203,7.13499 -1.917789,9.65746 -0.222391,1.204 -0.520848,2.59392 -0.663343,3.0887 -0.44478,1.54446 -0.330919,2.77808 0.287314,3.10887 1.782514,0.95398 6.643702,0.88873 8.771283,-0.11771 z m 111.805691,0.29409 c -0.24224,-0.38082 -1.69524,-3.99133 -3.34257,-8.30536 -1.2697,-3.3251 -2.01997,-5.14399 -2.41524,-5.85541 -0.13658,-0.24612 -0.24856,-0.57609 -0.24856,-0.73365 0,-0.15754 -0.16376,-0.65171 -0.36386,-1.09803 -0.2001,-0.44624 -0.73344,-1.79657 -1.18526,-3.00053 -0.45203,-1.20396 -0.92565,-2.42081 -1.05297,-2.70409 -0.41281,-0.91869 -0.98259,-3.04457 -0.86627,-3.23271 0.0626,-0.10069 1.03244,-0.55374 2.15587,-1.00662 2.44649,-0.98618 2.268,-1.04693 5.57885,1.89918 2.47599,2.20332 5.13475,4.49882 7.1847,6.20315 0.68142,0.56658 1.82453,1.52266 2.54015,2.12463 0.71563,0.60199 1.37936,1.09449 1.4749,1.09449 0.0956,0 0.25146,-3.04209 0.34594,-6.76022 0.0945,-3.71814 0.30523,-7.83923 0.46755,-9.15801 0.26116,-2.11887 0.37259,-2.45028 0.95711,-2.84902 0.76271,-0.52022 3.68785,-1.83533 4.08204,-1.83533 0.14627,0 0.63922,0.89814 1.09571,1.99589 0.45642,1.09771 1.1762,2.74915 1.59943,3.66982 0.42298,0.92067 1.11544,2.54315 1.53845,3.60544 0.42298,1.06234 0.92587,2.27918 1.11742,2.7041 1.11322,2.46926 5.00554,12.05258 5.00021,12.31107 -0.009,0.31298 -3.34472,1.98198 -3.96397,1.98198 -0.31978,0 -1.08152,-1.61429 -2.55177,-5.40815 -0.73476,-1.89614 -2.87839,-7.20233 -3.3812,-8.36981 -0.18314,-0.42493 -0.53698,-1.3231 -0.78666,-1.99589 -0.24952,-0.67279 -0.53548,-1.2233 -0.63514,-1.2233 -0.0998,0 -0.25775,3.1419 -0.35079,6.98203 -0.11533,4.74882 -0.27277,7.19295 -0.49201,7.64145 -0.23306,0.47725 -0.78453,0.82212 -1.99622,1.24854 -0.92064,0.32414 -1.96532,0.59381 -2.32154,0.59959 -0.62386,0.009 -3.84838,-2.6011 -9.4873,-7.68279 -1.04154,-0.93864 -1.98464,-1.74094 -2.09569,-1.78284 -0.20495,-0.0776 1.20492,3.50479 3.57795,9.0893 0.72212,1.69943 1.31294,3.16894 1.31294,3.26561 0,0.16423 1.22566,2.97188 1.86541,4.27294 0.3566,0.72482 0.20058,0.87991 -1.60785,1.59976 -0.77901,0.31008 -1.61764,0.66977 -1.86357,0.79929 -0.57808,0.30428 -0.64144,0.29797 -0.88619,-0.0863 z M 21.694194,266.69026 c -2.138628,-0.50627 -4.880762,-2.19876 -6.705185,-4.13859 -4.134131,-4.39542 -4.223572,-12.02909 -0.208824,-17.84844 1.240539,-1.79825 3.90801,-3.83553 6.310503,-4.81966 1.563515,-0.64043 6.018343,-0.63806 7.814761,0.003 3.069664,1.09737 6.121107,3.08113 6.982518,4.53946 0.25776,0.43606 0.559077,0.79252 0.670176,0.79252 0.110954,0 0.20204,0.12215 0.20204,0.2718 0,0.14928 0.224327,0.76442 0.498705,1.36667 0.904678,1.98562 1.117329,3.38304 0.976677,6.41587 -0.150204,3.24094 -0.762136,5.27831 -2.311986,7.69872 -1.211033,1.89139 -3.6018,4.00657 -5.60176,4.9562 -1.568942,0.74495 -1.876025,0.7976 -4.893118,0.83914 -1.770545,0.0243 -3.450922,-0.009 -3.734265,-0.0776 z m 5.929968,-4.70149 c 1.942595,-0.93884 3.404507,-2.50138 4.57019,-4.88508 1.069604,-2.18723 1.088889,-2.27428 1.088889,-4.93061 0,-2.31345 -0.08383,-2.86119 -0.581026,-3.7915 -0.911314,-1.70531 -2.03499,-2.82308 -3.621421,-3.60219 -1.232643,-0.60534 -1.78794,-0.71832 -3.523551,-0.71696 -1.682414,9.4e-4 -2.293382,0.11961 -3.331784,0.64385 -3.626317,1.8315 -5.701957,6.39085 -5.038615,11.06792 0.299427,2.11154 0.687181,2.97048 1.993517,4.4164 2.141825,2.37085 5.693722,3.12727 8.443801,1.79817 z m 178.436268,-9.88008 c -0.94295,-1.45185 -2.41008,-3.68272 -3.2603,-4.95751 -0.85024,-1.2748 -2.93546,-4.40382 -4.63367,-6.95341 -1.69831,-2.54955 -3.47902,-5.21599 -3.95725,-5.92546 -0.96335,-1.429 -1.10132,-2.42153 -0.41861,-3.01185 0.87154,-0.75391 6.42451,-4.01621 8.70418,-5.11368 2.08979,-1.00598 2.52663,-1.12013 4.67275,-1.22102 2.08516,-0.0981 2.51525,-0.0403 3.60549,0.48603 1.64079,0.79172 3.43,2.6633 4.32315,4.52226 0.84566,1.76014 1.14624,4.6935 0.66382,6.47864 -0.42927,1.58885 -3.34172,4.57532 -6.12781,6.28394 -1.20134,0.73665 -2.23638,1.47572 -2.30045,1.64239 -0.10517,0.27326 1.58378,3.16734 3.92274,6.7221 l 0.87814,1.33468 -1.76944,1.17629 c -0.97318,0.64698 -1.95365,1.17631 -2.17874,1.17631 -0.23595,0 -1.13534,-1.11777 -2.12376,-2.63971 z m 1.16433,-12.99438 c 1.07421,-0.66668 2.12695,-1.3796 2.33945,-1.58419 1.918,-1.84705 1.71115,-5.01022 -0.4627,-7.07482 -1.52176,-1.44522 -3.9955,-1.10935 -7.26044,0.98582 -1.92655,1.23627 -2.44523,1.77245 -2.16977,2.24271 0.53319,0.91039 3.82516,5.79915 4.16954,6.19203 0.61184,0.69803 1.2716,0.54954 3.38392,-0.76155 z M -3.0288581,253.39898 c -1.1955764,-0.29506 -4.5891833,-1.66628 -5.5566042,-2.24527 -1.4534827,-0.86993 -3.6356677,-3.19482 -4.5814307,-4.8812 -2.378219,-4.24014 -1.502467,-10.82298 2.025833,-15.22712 2.9173825,-3.64169 6.0257073,-5.22265 10.30126742,-5.23955 5.33799398,-0.0194 10.15257078,2.8075 12.22104258,7.18001 0.94271,1.99263 0.879337,2.324 -0.56775,2.96746 -2.2999219,1.02267 -2.4688704,0.99375 -3.2699583,-0.56 -0.9041445,-1.75373 -2.1601402,-3.05913 -3.8383871,-3.98934 -1.2326412,-0.68326 -1.5248499,-0.73487 -4.15864775,-0.73487 -2.76258025,0 -2.86204955,0.0194 -4.00825425,0.81641 -4.0725994,2.82876 -5.9899026,8.69643 -4.1089866,12.57527 0.7330164,1.51165 2.818105,3.63945 4.114703,4.1989 0.5017109,0.21659 2.0130915,0.57993 3.3586733,0.80769 l 2.4466311,0.41425 0.075103,2.11838 0.075103,2.11842 -1.74883981,-0.0339 c -0.96175259,-0.0194 -2.21232119,-0.1468 -2.77890749,-0.28689 z M 233.09391,101.96701 c -0.1066,-0.17704 -0.57272,-0.91818 -1.036,-1.64694 l -0.84229,-1.325035 0.82764,-0.766215 c 0.45544,-0.421425 1.39844,-1.286775 2.09605,-1.92302 l 1.26835,-1.156815 -1.36531,-3.190268 c -0.75094,-1.754639 -1.55348,-3.637683 -1.78348,-4.184532 l -0.41814,-0.994277 -2.40446,0.122584 c -2.75712,0.140558 -2.9954,0.01206 -3.77905,-2.04018 -0.38857,-1.017816 -0.39779,-1.211901 -0.0712,-1.538413 0.40797,-0.407764 3.04564,-0.626975 13.46575,-1.118919 3.25781,-0.153836 6.73441,-0.376899 7.72596,-0.495811 1.63304,-0.195841 1.85766,-0.166092 2.38679,0.315996 0.60931,0.55521 1.6766,2.641617 1.95669,3.825154 0.17491,0.739649 0.88821,0.01745 -10.26671,10.397045 -6.47442,6.024336 -7.2384,6.587436 -7.76049,5.719656 z m 7.98847,-11.880311 c 3.36869,-3.064244 4.02129,-3.714206 4.02129,-4.005018 0,-0.35442 -1.1572,-0.34812 -5.27942,0.02859 -3.21186,0.293565 -3.9455,0.525026 -3.50019,1.104355 0.11247,0.146364 0.59143,1.135347 1.06408,2.197661 0.86227,1.938097 1.22664,2.575331 1.47237,2.575331 0.0731,0 1.07256,-0.855423 2.22187,-1.900938 z m -270.894572,3.747242 c -0.991553,-0.538616 -2.845774,-1.540418 -4.120568,-2.226223 -3.285849,-1.76774 -3.333967,-1.794607 -3.47665,-1.943119 -0.07123,-0.07368 -0.418612,-0.274086 -0.77264,-0.445361 -0.354188,-0.171226 -1.107362,-0.576654 -1.67394,-0.900927 -0.566594,-0.324235 -2.160087,-1.20375 -3.541092,-1.954399 -1.645922,-0.894657 -2.510053,-1.514021 -2.508499,-1.797923 0,-0.553345 1.333905,-2.877686 1.963528,-3.429626 0.264538,-0.231644 0.886261,-0.48136 1.381957,-0.554847 0.49576,-0.07349 1.828443,-0.308632 2.961616,-0.522544 1.133172,-0.213911 3.045346,-0.569978 4.249258,-0.791296 3.765223,-0.692152 6.02362,-1.15016 6.820786,-1.383286 0.828418,-0.242256 1.142815,-0.05769 -8.560325,-5.024812 -1.169216,-0.598541 -2.192306,-1.294887 -2.273468,-1.547442 -0.159881,-0.497919 1.110105,-2.964665 1.726753,-3.353646 0.250481,-0.158039 0.787711,-0.03003 1.650778,0.392793 1.921994,0.942028 6.908769,3.571869 7.202623,3.798405 0.14151,0.109161 1.822,0.986051 3.734216,1.948589 1.912168,0.962547 3.969253,2.08413 4.57116,2.492402 0.963545,0.653469 1.094559,0.858776 1.094559,1.71519 0,1.532076 -0.669885,1.953225 -4.120518,2.59074 -1.628876,0.300929 -3.425196,0.654995 -3.991782,0.786791 -0.566587,0.131785 -2.015125,0.426514 -3.219179,0.654995 -1.203912,0.228445 -2.710499,0.535741 -3.347817,0.682854 -0.637475,0.147141 -1.947884,0.357811 -2.912007,0.468181 -1.562016,0.178832 -2.275404,0.389644 -1.959751,0.579039 0.05965,0.03536 3.089719,1.570947 6.734833,3.412303 3.645113,1.841356 6.682563,3.489942 6.749716,3.663532 0.293613,0.758229 -1.398346,3.678624 -2.127677,3.67252 -0.238379,-0.0019 -1.244414,-0.444297 -2.23587,-0.982927 z M 223.80436,79.459342 c -0.17055,-0.06928 -0.73626,-0.718751 -1.25662,-1.443147 -0.96215,-1.339243 -0.98008,-1.796495 -0.0897,-2.297681 0.20302,-0.114303 1.60301,-0.952073 3.11104,-1.861791 1.50798,-0.909711 3.42016,-2.027519 4.24925,-2.48402 0.82909,-0.456505 1.97094,-1.133002 2.53752,-1.503346 0.5666,-0.370362 1.46472,-0.902498 1.99585,-1.182585 0.53116,-0.280094 0.96577,-0.598781 0.96577,-0.708218 0,-0.109448 0.10946,-0.198987 0.2437,-0.198987 0.13422,0 0.93589,-0.405585 1.78174,-0.901359 0.84582,-0.49575 1.66352,-0.901364 1.81707,-0.901364 0.35514,0 2.63421,3.077407 2.47279,3.338644 -0.10614,0.171371 -4.28578,2.750442 -5.67143,3.499375 -0.28344,0.153106 -1.70707,0.994999 -3.16391,1.870837 -1.45677,0.875846 -2.68457,1.592436 -2.72827,1.592436 -0.0436,0 -1.34354,0.752681 -2.88822,1.672616 -1.5447,0.919935 -2.86656,1.66407 -2.93739,1.653624 -0.0713,-0.01019 -0.26841,-0.07573 -0.43896,-0.145064 z m -6.09591,-7.053125 c -1.2168,-1.446108 -1.18924,-1.947363 0.51654,-9.390984 0.77706,-3.390718 1.3042,-5.726 1.68605,-7.468433 0.15498,-0.708224 0.49816,-2.106283 0.76214,-3.106821 0.26404,-1.000539 0.48014,-1.908974 0.48014,-2.01876 0,-0.109797 -0.79776,0.477049 -1.77288,1.304099 -1.9579,1.660511 -2.87029,2.422482 -7.2783,6.078338 l -2.99932,2.487433 -1.31439,-1.314423 c -0.72292,-0.722939 -1.31442,-1.525233 -1.31442,-1.78289 0,-0.411543 3.86838,-3.786229 9.2117,-8.036141 1.44083,-1.146016 4.17023,-3.37015 6.62883,-5.401748 l 1.49098,-1.232075 0.62149,0.583852 c 1.25811,1.181949 1.68924,2.185244 1.50411,3.500605 -0.29846,2.121511 -1.79926,9.147324 -2.89937,13.574115 -0.21123,0.849849 -0.44284,2.066698 -0.51479,2.704087 l -0.13087,1.158899 3.43983,-3.352631 c 3.48799,-3.399722 6.48438,-6.100133 6.95547,-6.268631 0.329,-0.11773 2.46248,2.158337 2.68753,2.867364 0.13564,0.427144 -0.18507,0.872365 -1.604,2.227434 -0.97528,0.93148 -2.11945,1.973002 -2.54247,2.314486 -0.42298,0.341482 -1.92802,1.676657 -3.34443,2.967027 -2.10588,1.918443 -7.35758,6.530568 -9.17474,8.057406 -0.36435,0.306306 -0.50592,0.248019 -1.09461,-0.451613 z M -20.323787,69.587279 c -3.845896,-0.817108 -7.703179,-3.692622 -9.292275,-6.927212 -0.652151,-1.327348 -0.711023,-1.693551 -0.708501,-4.409203 0,-4.103428 1.695833,-8.213609 7.180879,-10.776183 3.324998,-1.553281 6.22518,-1.527225 9.430215,0.0847 1.459441,0.734002 3.9483218,3.093611 5.2406548,4.968429 1.0297784,1.493967 1.9673061,4.222438 1.9673061,5.725746 0,4.339817 -3.6821809,9.19598 -8.2652099,10.900572 -1.437155,0.534517 -4.098665,0.742111 -5.553069,0.433159 z m 5.319679,-4.649346 c 1.042376,-0.535001 2.496051,-2.04423 3.20552,-3.327983 0.733935,-1.328119 0.690136,-4.369337 -0.08673,-6.033134 -0.656124,-1.404877 -2.582196,-3.462762 -3.916392,-4.184513 -1.227167,-0.663827 -4.646259,-0.66341 -5.874056,7.18e-4 -4.396446,2.378198 -5.117204,6.946775 -3.981511,9.339993 0.662179,1.395371 2.567128,3.34531 3.898853,3.990898 2.204861,1.068789 4.921558,1.154872 6.754556,0.214008 z m 8.6182248,-19.529189 c -6.0037098,-6.136559 -8.6182248,-9.118375 -8.6182248,-9.8289 0,-0.238765 4.439858,-4.316543 6.7485493,-6.198235 1.9029617,-1.551 3.516089,-2.452242 4.8764483,-2.724304 1.1212061,-0.224231 3.5789323,0.60526 5.0034402,1.688686 2.343334,1.782253 3.5798516,5.479205 2.609523,7.801666 -0.360476,0.862966 -0.3575676,0.976981 0.03392,1.315193 0.2359566,0.203687 0.6609203,0.435719 0.944165,0.515694 0.2834381,0.0799 1.5001396,0.517927 2.7040493,0.973288 1.2040569,0.455342 2.8615679,1.055903 3.6835379,1.334544 0.821923,0.278642 1.459345,0.639797 1.416466,0.802539 -0.04361,0.162746 -0.691978,0.866845 -1.442338,1.56467 L 10.209417,43.922341 6.4325146,42.696499 C 4.3552757,42.02228 2.4561895,41.363902 2.212383,41.233429 1.9686754,41.102945 1.5248156,40.996213 1.2260668,40.996213 c -0.60651092,0 -3.0962148,2.196062 -3.0962148,2.731067 0,0.188571 1.28041576,1.63077 2.84548043,3.204963 L 3.8209077,49.794409 2.3274056,51.187907 C 1.5060162,51.954336 0.77600536,52.568811 0.70512009,52.553403 0.63388957,52.53786 -2.556748,49.322907 -6.3861222,45.408763 Z m 4.0368907,-6.787987 c 0.7988114,-0.691818 1.71904206,-1.760526 2.04502061,-2.374918 0.53097408,-1.000954 0.56052934,-1.224018 0.284406,-2.146177 -0.36483494,-1.218354 -1.60731281,-2.519206 -2.59426081,-2.7166 -0.8373788,-0.167495 -2.1794721,0.106307 -3.2477202,0.662548 -1.1849666,0.616998 -3.476699,3.146442 -3.476699,3.837296 0,0.40161 0.688732,1.287968 2.1137242,2.720379 2.4273471,2.440037 2.0798569,2.438792 4.8757227,0.01744 z M 200.43183,51.307689 199.1736,50.030224 201.21412,47.92794 c 8.60902,-8.869525 14.15263,-14.400189 14.43405,-14.400189 0.18313,0 0.97871,0.66182 1.76845,1.470711 l 1.4359,1.470726 -8.05499,8.057979 c -5.31371,5.315764 -8.23397,8.057986 -8.58115,8.057986 -0.29021,0 -1.09073,-0.573097 -1.78455,-1.277464 z m -7.99356,-8.14102 c -4.63965,-1.659961 -7.95186,-4.86879 -9.13848,-8.853199 -0.63499,-2.132086 -0.64464,-3.211554 -0.0509,-5.579443 0.90666,-3.611495 3.40067,-6.780356 6.77693,-8.610682 l 1.63916,-0.888644 3.47668,0.01301 c 3.35791,0.01253 3.53678,0.04119 5.23587,0.835538 2.34245,1.095201 4.86696,3.512852 5.83671,5.589691 0.83188,1.781797 1.37716,3.64076 1.16742,3.980207 -0.08,0.128739 -0.76126,0.372055 -1.51473,0.540684 -1.43725,0.321667 -2.48399,0.06775 -2.48437,-0.60259 -1.1e-4,-0.17205 -0.3377,-1.026643 -0.75065,-1.899057 -1.40794,-2.976157 -4.53797,-4.707122 -7.82934,-4.329864 -1.89076,0.216723 -2.97126,0.725224 -4.60891,2.168977 -2.48935,2.194614 -3.7035,6.438261 -2.54649,8.899826 1.12354,2.390139 3.19269,4.048244 5.97881,4.791104 1.05724,0.281888 1.28163,0.262266 2.03335,-0.177912 0.46465,-0.2721 1.07856,-0.808105 1.36395,-1.191076 0.42877,-0.575118 0.46172,-0.765192 0.19089,-1.091984 -0.41377,-0.498261 -3.27427,-2.460983 -3.58698,-2.460983 -0.12788,0 -0.30524,-0.188134 -0.39343,-0.418082 -0.10518,-0.274523 0.24565,-0.893635 1.02247,-1.802737 0.65059,-0.761548 1.27815,-1.384629 1.39436,-1.384629 0.23064,0 5.884,4.318716 7.0131,5.357205 l 0.6971,0.641289 -0.82588,1.172344 c -1.33585,1.89599 -4.36412,4.98014 -5.26019,5.357122 -1.06126,0.446525 -3.51149,0.418083 -4.837,-0.05616 z M 19.710124,35.388981 C 19.501301,35.144352 18.107607,33.147891 16.612652,30.952429 14.343157,27.61946 12.387528,24.837165 9.5982029,20.973041 9.3680611,20.654331 9.0214903,20.393596 8.8278804,20.393596 c -0.1938034,0 -1.3128767,0.712443 -2.4871847,1.583205 L 4.2054126,23.56 3.099227,22.338183 C 2.4907788,21.666181 1.9940096,20.924774 1.9950765,20.690592 c 0,-0.240657 0.8688235,-1.018601 1.9958423,-1.789417 1.0966896,-0.750007 3.7901289,-2.686315 5.9855894,-4.302892 5.5006448,-4.050274 4.9877908,-3.862569 6.3438388,-2.321473 0.618573,0.702933 1.124596,1.366848 1.124596,1.475359 0,0.108479 -1.042907,0.978525 -2.317752,1.933374 -1.274794,0.954859 -2.3178,1.860102 -2.3178,2.011658 0,0.151551 0.525694,0.997972 1.168203,1.880941 0.642412,0.882966 2.85425,4.12209 4.915113,7.198056 2.060864,3.075958 3.939649,5.807402 4.175218,6.069875 0.405051,0.45137 0.374043,0.522759 -0.572837,1.317626 -0.550644,0.462223 -1.317044,1.02708 -1.703343,1.25524 -0.650987,0.384604 -0.729914,0.382375 -1.081621,-0.03004 z M 174.36091,30.474484 c -1.97931,-1.041677 -2.39648,-1.502602 -2.39648,-2.647581 0,-1.127833 0.43704,-4.103259 0.89054,-6.063519 0.18169,-0.784833 0.21706,-1.497738 0.0867,-1.731156 -0.12215,-0.21827 -0.93199,-0.812914 -1.7997,-1.321442 -1.91081,-1.119907 -1.6594,-1.305096 -4.29455,3.163628 -1.02319,1.735122 -1.91934,3.154767 -1.99149,3.154767 -0.21416,0 -3.30335,-1.560496 -3.53005,-1.783153 -0.16231,-0.15955 1.96717,-4.211153 3.66509,-6.972949 0.77323,-1.257628 4.6122,-7.6988089 5.05068,-8.474044 0.28779,-0.5092398 0.83844,-1.4161203 1.22324,-2.0152954 0.38469,-0.5991658 0.69962,-1.1676691 0.69962,-1.2633509 0,-0.3788876 1.33546,-1.8965362 1.66889,-1.8965362 0.31544,0 2.34513,1.2254998 4.30838,2.6013674 0.38372,0.2689514 0.75056,0.4890214 0.81499,0.4890214 0.35321,0 4.55671,3.0410032 5.46281,3.9519843 1.43855,1.4462924 1.90983,2.4556494 1.90644,4.0831184 -0.009,3.940603 -2.48262,7.135464 -5.97269,7.711061 -0.89199,0.147093 -1.88654,0.318177 -2.21029,0.380097 -0.80603,0.154265 -0.94611,0.654622 -1.488,5.313305 -0.25968,2.230877 -0.5358,4.049079 -0.61405,4.040446 -0.0781,-0.0087 -0.74421,-0.332519 -1.47998,-0.719783 z m 5.46141,-13.688254 c 0.53785,-0.332472 1.03651,-0.982063 1.39704,-1.82002 l 0.56052,-1.303057 -0.53311,-1.101112 c -0.35173,-0.726702 -0.99155,-1.413752 -1.88163,-2.020533 -1.63808,-1.1167039 -3.66964,-2.2519446 -4.02997,-2.2519446 -0.27083,0 -1.75877,2.1948586 -2.66118,3.9261786 -0.27809,0.533234 -0.60922,1.033718 -0.73621,1.112199 -0.86911,0.537114 0.87348,2.30325 3.40632,3.452527 1.48498,0.67377 3.3933,0.676227 4.47822,0.0059 z M 30.251127,22.90454 C 28.910826,20.177912 27.017846,16.266636 26.044416,14.212816 25.071084,12.158997 23.910246,9.7253156 23.464836,8.8046316 22.935412,7.7106081 22.737828,7.0274869 22.894375,6.8328205 c 0.275201,-0.3425986 3.520692,-1.766185 3.66837,-1.6091752 0.148743,0.1581039 3.48828,7.1186607 3.765952,7.8491337 0.450111,1.18374 0.286346,1.233868 8.169569,-2.501609 0.885249,-0.41949 1.609495,-0.8780441 1.609495,-1.0190042 0,-0.1409381 -0.389547,-1.091125 -0.865869,-2.1114878 C 38.765618,6.4203221 38.286051,5.2957503 38.17626,4.9416451 38.066274,4.5875661 37.7121,3.7165468 37.388351,3.0061111 c -1.146014,-2.51624 -1.150132,-2.50076616 0.870954,-3.29019208 0.9822,-0.38363646 1.903302,-0.69752106 2.046766,-0.69752106 0.143414,0 0.444294,0.4586369 0.668672,1.01918277 0.224328,0.56054398 0.632964,1.51663707 0.908118,2.12464367 0.275202,0.6080036 1.041502,2.4074158 1.702907,3.9987115 0.802107,1.9298033 1.45232,3.1034233 1.952722,3.5244432 0.562321,0.4731729 0.750069,0.8542819 0.750069,1.5222239 0,0.758327 0.354662,1.787988 1.788133,5.194241 1.4029,3.332978 1.555617,3.815235 1.304592,4.117806 -0.377917,0.455247 -3.304503,1.7348 -3.681113,1.609351 -0.172001,-0.05731 -1.0698,-1.890022 -1.99497,-4.072638 -1.09073,-2.5732 -1.830869,-3.997043 -2.105488,-4.049919 -0.232565,-0.04505 -0.98249,0.163426 -1.665843,0.462756 -0.683305,0.299378 -1.474268,0.644525 -1.757514,0.767012 -0.768868,0.332375 -3.487406,1.553729 -4.442473,1.995787 -0.482572,0.223358 -0.836989,0.580184 -0.836989,0.842669 0,0.481554 2.249143,5.150527 3.240983,6.727781 0.435576,0.693107 0.511498,1.006856 0.295067,1.223283 -0.160372,0.160082 -0.39972,0.291092 -0.53301,0.291092 -0.133244,0 -0.806903,0.347637 -1.497523,0.772601 -0.690572,0.424915 -1.358857,0.772596 -1.485025,0.772596 -0.125978,0 -1.325909,-2.230885 -2.666209,-4.9575 z M 154.45221,20.6692 c -0.98384,-0.19671 -2.0602,-0.708688 -2.0602,-0.979912 0,-0.192786 1.47393,-4.295866 1.82854,-5.090166 0.45932,-1.028747 1.57332,-4.136396 1.70791,-4.7643643 0.0761,-0.3540811 0.22821,-0.7597177 0.33771,-0.901359 0.10994,-0.1416202 0.48354,-1.0687608 0.8303,-2.0602528 0.3469,-0.9915056 1.35391,-3.6279932 2.238,-5.8588658 1.23365,-3.1125721 1.71411,-4.0561365 2.06547,-4.0561365 0.51315,0 2.04338,0.5755596 3.80669,1.4318253 0.0988,0.04797 -1.20511,3.9799748 -1.61764,4.8773752 -0.19523,0.4251077 -0.87229,2.1056713 -1.50411,3.7345658 -2.79867,7.2143991 -3.5029,9.0355481 -4.40666,11.3958101 -1.05608,2.758059 -0.99781,2.717022 -3.22606,2.27148 z M 54.635362,18.143535 C 54.480796,18.035436 53.975118,16.556364 53.511105,14.856648 53.046943,13.156933 52.401187,10.897085 52.07584,9.8347577 51.540263,8.0863497 50.44401,3.7235242 49.519806,-0.33777124 49.326487,-1.1876261 49.091014,-2.4761951 48.996536,-3.2012549 c -0.160857,-1.2346289 -0.133721,-1.3266377 0.427338,-1.4497944 0.329466,-0.072338 1.294368,-0.3259306 2.144198,-0.5635638 1.940851,-0.54269 11.537108,-2.976893 11.737938,-2.9774693 0.189444,-5.424e-4 0.752396,2.4152539 0.752396,3.2284504 0,0.4945602 -0.18799,0.662006 -0.965774,0.859294 -0.531169,0.1347841 -2.47231,0.6129974 -4.313691,1.0627244 -5.111485,1.2484276 -4.857893,1.0938876 -4.674409,2.84907651 0.08479,0.80994434 0.40069,2.13297179 0.702927,2.94006399 0.479181,1.2811074 0.619156,1.4471011 1.101341,1.3073488 2.273758,-0.6589716 7.656858,-2.0418859 8.320009,-2.1373924 0.978614,-0.1409379 1.264668,0.2680309 1.516903,2.1685656 l 0.171517,1.2937599 -1.122658,0.3096016 c -1.635077,0.450934 -5.874298,1.576828 -6.888911,1.8296353 -1.483667,0.3696819 -1.595443,0.6510856 -1.077018,2.7105493 0.704332,2.797964 0.878077,3.024768 2.162805,2.822941 0.591295,-0.09289 1.654554,-0.32942 2.36281,-0.525665 0.708209,-0.196227 1.92496,-0.524357 2.704052,-0.729158 0.779043,-0.204803 1.9174,-0.505646 2.529725,-0.668537 1.209481,-0.321764 1.83789,-0.07408 1.859598,0.73302 0.0097,0.230529 0.166671,0.855058 0.357084,1.387835 0.217061,0.608976 0.252429,1.0263 0.09449,1.123861 -0.242257,0.149711 -1.409101,0.49641 -4.262624,1.266456 -3.077317,0.830471 -4.353082,1.183037 -5.08508,1.40535 -0.424916,0.129025 -1.409973,0.406602 -2.189065,0.616776 -0.778947,0.210183 -1.648158,0.44861 -1.931403,0.529852 -0.283438,0.0813 -0.641345,0.05931 -0.795711,-0.04875 z M 138.82555,15.76867 c -0.87513,-0.21832 -1.66213,-0.469247 -1.74885,-0.557638 -0.0868,-0.08838 -0.33045,-1.826714 -0.54135,-3.862984 -0.78688,-7.5891976 -1.15439,-11.27713855 -1.51114,-15.1625034 -0.20154,-2.1954615 -0.44671,-4.4823592 -0.54517,-5.0819832 -0.14834,-0.9046377 -0.10165,-1.1197734 0.27375,-1.2638054 0.56785,-0.21788 3.79938,0.4006847 4.04009,0.7733707 0.0984,0.1521379 0.24661,1.0335169 0.32948,1.9587275 0.20397,2.2764523 0.79091,7.79467494 1.33657,12.5629425 0.32219,2.8133268 0.5442,3.9273649 0.78325,3.9273649 0.18362,0 0.33383,-0.1249946 0.33383,-0.2777683 0,-0.3199227 3.99867,-6.6651694 5.45773,-8.66048804 0.53929,-0.73758 0.98057,-1.39838406 0.98057,-1.46847796 0,-0.2068379 2.22706,-3.3184441 2.84515,-3.9751164 0.61194,-0.6501973 0.84994,-0.6483038 3.20688,0.02569 1.03918,0.297053 1.27699,0.4688111 1.23241,0.8899053 -0.0626,0.587099 -3.62889,5.9631904 -9.36094,14.1103024 -1.19587,1.6997144 -2.62367,3.7506694 -3.17287,4.5576894 -1.23127,1.809477 -1.81879,2.03393 -3.93901,1.504987 z M 73.893574,12.748313 C 73.759363,12.491471 73.586395,11.296253 73.509359,10.092299 73.388711,8.2107805 72.932549,4.0393096 72.45269,0.43482495 72.061207,-2.5047022 71.469327,-10.246419 71.608237,-10.608332 c 0.116286,-0.30331 0.495703,-0.417755 1.391368,-0.419596 0.677248,-9.44e-4 2.737968,-0.172967 4.57925,-0.38125 4.461903,-0.504724 5.793676,-0.484084 7.501816,0.116285 1.859552,0.653594 3.058859,1.5843537 3.725787,2.8916675 1.910667,3.7452393 1.631927,7.3593041 -0.745807,9.6701556 -1.267188,1.2316485 -1.267672,1.133651 0.0146,3.1776601 0.31784,0.5067297 1.252507,1.9965498 2.077144,3.310711 1.971323,3.1415968 1.945258,3.0295538 0.775556,3.3287098 -2.324923,0.594649 -3.040447,0.603695 -3.747785,0.04748 -0.556363,-0.43766 -2.191586,-2.8533384 -4.520238,-6.6773555 -0.353693,-0.5807867 -0.476759,-0.6066886 -2.244542,-0.472977 -2.873533,0.2173013 -3.322238,0.7133579 -2.730942,3.0189038 0.126947,0.4957465 0.301365,1.9179378 0.38664,3.1604107 0.178784,2.597722 0.22675,2.542453 -2.470179,2.873423 -1.261664,0.154852 -1.496604,0.11527 -1.707171,-0.287412 z M 80.935688,0.02508411 c 3.050572,-0.56393035 4.240287,-1.67132191 4.240287,-3.94678121 0,-1.516793 -0.647548,-2.8347334 -1.661095,-3.3805386 -0.65869,-0.354758 -1.326492,-0.4183749 -3.534065,-0.3366377 -3.71004,0.137306 -3.676754,0.1021801 -3.461147,3.6520051 0.214154,3.52439446 0.557719,4.29293541 1.919823,4.29293541 0.536933,0 1.660173,-0.1264543 2.496197,-0.28096882 z M 111.77161,10.800508 c -0.29411,-0.318711 -1.24703,-1.7383464 -2.11741,-3.1547659 -0.87027,-1.4164326 -2.38752,-3.8501086 -3.3717,-5.4081814 -0.98404,-1.55807288 -2.39824,-3.9245037 -3.14244,-5.2587324 l -1.35319,-2.4258646 -0.12881,8.2203494 -0.12882,8.2203499 h -2.317854 -2.317742 l -0.07316,-3.8629903 c -0.03868,-2.1246399 0.03395,-7.43984704 0.161337,-11.8115784 0.184599,-6.2614653 0.309599,-7.9973073 0.588189,-8.1781453 0.194784,-0.126281 1.276255,-0.199906 2.403661,-0.163672 l 2.049819,0.06585 1.6433,2.689145 c 0.90377,1.4790283 2.18322,3.5090367 2.84325,4.5111356 0.66,1.0020933 2.18506,3.4593355 3.38902,5.46055646 1.20405,2.00121024 2.27598,3.58591244 2.38218,3.52155514 0.10614,-0.06435 0.1938,-2.51487371 0.19429,-5.445609 7.8e-4,-2.9307295 0.0772,-6.4739726 0.17007,-7.8738432 l 0.1686,-2.545273 1.9471,0.164593 c 1.12741,0.09535 2.09949,0.317 2.30913,0.526727 0.30912,0.309164 0.31881,1.9941137 0.0663,11.52306196 -0.2626,9.90099394 -0.34447,11.19727604 -0.7255,11.48284704 -0.25,0.187311 -1.19761,0.321909 -2.26682,0.321909 -1.57521,0 -1.91371,-0.08265 -2.37247,-0.579446 z"
         id="path1-5"
         sodipodi:nodetypes="ccssscccccccccccccccccccccccccscccscssccscsccsccccccccssscccsssscsccscscccccsscsccccscsscssscsccscssccsssscscsssssssssscssssccscsssssssccscsssscccscsscssscssscssssscsccscssscccsscscssscssssscsssssscscscssssscsccccccccccccscsccsccsscccccssccsssscsccssccssssscsccscsssssscsccccccsssssssssssssscccsscssccccssscssscccsccsssssssccsssssscccsssccccssssccccscscccsssccsccccsssscccccsscccsccccccccccsscsscscccscssccccccccssccscccsssscscccccsscscssccccssssscscccsscccccscccccsccsccsscscsscsccsccsscccsscsscssssscccccscccsscssscssssccccssccssssssscccsccccccccccccccsssscccscccccccccssccscccsscsccssccssssccccccccccccsccscccccscccscc" /></g></g></svg>
